<?xml version="1.0" encoding="UTF-8"?>
<svg xmlns="http://www.w3.org/2000/svg" viewBox="0 0 48 48">
  <defs>
    <style>
      .cls-1 {
        fill: #848484;
      }

      .cls-2 {
        fill: #fff;
      }
    </style>
  </defs>
  <g id="background">
    <g>
      <path class="cls-2" d="M24,47c-12.68,0-23-10.32-23-23S11.32,1,24,1s23,10.32,23,23-10.32,23-23,23Z"/>
      <path class="cls-1" d="M24,2c12.13,0,22,9.87,22,22s-9.87,22-22,22S2,36.13,2,24,11.87,2,24,2M24,0C10.75,0,0,10.75,0,24s10.75,24,24,24,24-10.75,24-24S37.25,0,24,0h0Z"/>
    </g>
  </g>
  <g id="icon">
    <g>
      <polygon class="cls-1" points="34.23 35.65 23 24.41 23 8.74 25 8.74 25 23.59 35.65 34.23 34.23 35.65"/>
      <polygon class="cls-1" points="20.01 9.91 24 3 27.99 9.91 20.01 9.91"/>
      <polygon class="cls-1" points="31.29 36.94 39 39 36.94 31.29 31.29 36.94"/>
    </g>
    <g>
      <rect class="cls-1" x="11.21" y="29.47" width="12.64" height="2" transform="translate(-16.41 21.32) rotate(-45)"/>
      <polygon class="cls-1" points="11.06 31.29 9 39 16.71 36.94 11.06 31.29"/>
    </g>
    <g>
      <path class="cls-2" d="M24,35c-.92,0-1.82-.11-2.68-.33-1.2-.3-2.32-.79-3.32-1.45-.66-.43-1.26-.92-1.79-1.44-1.63-1.63-2.69-3.68-3.06-5.92-.11-.59-.16-1.21-.16-1.86,0-.92.11-1.82.33-2.68.67-2.7,2.33-5.02,4.67-6.54,1.26-.83,2.65-1.37,4.14-1.62.59-.11,1.21-.16,1.86-.16s1.26.05,1.84.16c1.51.25,2.91.79,4.16,1.62,2.34,1.53,4,3.85,4.67,6.54.22.86.33,1.76.33,2.68,0,.65-.05,1.26-.16,1.84-.37,2.26-1.43,4.31-3.06,5.94-.52.52-1.12,1.01-1.78,1.44-1,.66-2.12,1.15-3.32,1.45-.86.22-1.76.33-2.68.33Z"/>
      <path class="cls-1" d="M24,14c.59,0,1.14.05,1.69.15,1.36.22,2.62.72,3.76,1.47,2.13,1.38,3.64,3.49,4.25,5.95.2.77.3,1.59.3,2.43,0,.59-.05,1.14-.15,1.69-.34,2.04-1.3,3.9-2.78,5.38-.48.48-1.02.92-1.63,1.32-.91.6-1.92,1.04-3.02,1.31-.77.2-1.59.3-2.43.3s-1.66-.1-2.44-.3c-1.09-.27-2.1-.71-3.01-1.31-.6-.4-1.15-.84-1.62-1.31-1.48-1.48-2.44-3.34-2.79-5.42-.09-.51-.14-1.07-.14-1.66,0-.84.1-1.66.3-2.44.61-2.45,2.12-4.56,4.25-5.95,1.13-.75,2.4-1.24,3.79-1.47.51-.09,1.07-.14,1.66-.14M24,12c-.69,0-1.36.05-2.02.17-1.65.27-3.19.88-4.53,1.77-2.5,1.63-4.35,4.16-5.09,7.13-.24.94-.36,1.92-.36,2.92,0,.69.05,1.36.17,2.02.41,2.51,1.61,4.75,3.34,6.47.59.59,1.24,1.11,1.94,1.57,1.09.72,2.31,1.25,3.62,1.58.94.24,1.92.36,2.92.36s1.99-.12,2.92-.36c1.31-.33,2.53-.86,3.62-1.58.7-.46,1.35-.98,1.94-1.57,1.72-1.72,2.92-3.96,3.34-6.47.12-.65.17-1.33.17-2.02,0-1-.12-1.99-.36-2.92-.74-2.98-2.6-5.51-5.09-7.13-1.34-.88-2.88-1.49-4.53-1.77-.65-.12-1.33-.17-2.02-.17h0Z"/>
    </g>
    <path class="cls-1" d="M6.85,33.16c-.37,0-.73-.21-.9-.57-1.29-2.7-1.95-5.59-1.95-8.59,0-3.28.77-6.4,2.29-9.3,2.01-3.82,5.25-6.93,9.12-8.76.73-.36,1.5-.67,2.28-.92.53-.17,1.09.12,1.26.64.17.53-.12,1.09-.64,1.26-.69.22-1.37.5-2.03.82-3.49,1.65-6.4,4.44-8.21,7.89-1.37,2.6-2.06,5.42-2.06,8.36,0,2.7.59,5.3,1.75,7.73.24.5.03,1.1-.47,1.33-.14.07-.29.1-.43.1Z"/>
    <path class="cls-1" d="M41.15,33.16c-.14,0-.29-.03-.43-.1-.5-.24-.71-.84-.47-1.33,1.16-2.42,1.75-5.02,1.75-7.73,0-2.95-.69-5.76-2.06-8.36-1.81-3.44-4.72-6.24-8.2-7.88-.67-.32-1.35-.6-2.04-.82-.53-.17-.81-.73-.64-1.26.17-.52.73-.82,1.26-.64.78.25,1.55.56,2.29.92,3.86,1.82,7.1,4.93,9.11,8.75,1.52,2.89,2.29,6.02,2.29,9.3,0,3.01-.66,5.9-1.95,8.59-.17.36-.53.57-.9.57Z"/>
    <path class="cls-1" d="M24,44c-2.17,0-4.3-.35-6.32-1.03-1.03-.34-2.04-.76-2.98-1.26-.49-.26-.67-.87-.41-1.35s.87-.67,1.35-.41c.84.45,1.74.83,2.67,1.13,3.65,1.24,7.74,1.23,11.37,0,.94-.31,1.84-.69,2.68-1.13.49-.26,1.09-.07,1.35.41s.07,1.09-.41,1.35c-.94.5-1.95.93-2.99,1.27-2.01.68-4.14,1.03-6.31,1.03Z"/>
    <path class="cls-1" d="M21.31,30.79s-.06,0-.1,0c-.37-.03-.71-.22-.93-.52l-4.09-5.6c-.33-.45-.23-1.07.22-1.4.45-.33,1.07-.23,1.4.22l3.59,4.92,8.9-8.9c.39-.39,1.02-.39,1.41,0s.39,1.02,0,1.41l-9.49,9.49c-.24.24-.56.37-.9.37Z"/>
  </g>
</svg>