<?xml version="1.0" encoding="UTF-8"?>
<svg id="Layer_2" xmlns="http://www.w3.org/2000/svg" viewBox="0 0 48 48">
  <defs>
    <style>
      .cls-1 {
        fill: #848484;
      }

      .cls-2 {
        fill: #fff;
      }
    </style>
  </defs>
  <g id="icon">
    <g>
      <circle class="cls-1" cx="24" cy="24" r="24"/>
      <path class="cls-2" d="M36.88,18.66c-.35-.2-.78-.21-1.12,0l-5.9,3.36v-2.51s.01,0,.01,0l.04-7.37c0-.55-.44-1-1-1h0c-.55,0-1,.44-1,1l-.03,5.18-14.03-.07h-.02c-1.77,0-3.22,1.44-3.23,3.21l-.05,9.1c0,1.78,1.43,3.24,3.21,3.25l12.8.07h.02c1.77,0,3.22-1.44,3.23-3.21v-1.47s5.87,3.42,5.87,3.42c.18.1.37.16.57.16s.38-.05.56-.15c.35-.2.57-.57.57-.97l.06-11c0-.4-.21-.78-.55-.98ZM26.59,30.87h0l-12.8-.07c-.68,0-1.23-.56-1.23-1.24l.05-9.1c0-.68.56-1.23,1.23-1.23h0l14.03.07v.18s0,0,0,0l-.05,10.15c0,.68-.56,1.23-1.23,1.23ZM35.39,29.12l-5.55-3.24v-1.55s5.59-3.18,5.59-3.18l-.04,7.97Z"/>
    </g>
  </g>
</svg>