<?xml version="1.0" encoding="UTF-8"?>
<svg xmlns="http://www.w3.org/2000/svg" viewBox="0 0 48 48">
  <defs>
    <style>
      .cls-1 {
        fill: #ff8500;
      }

      .cls-2 {
        fill: #fff;
      }
    </style>
  </defs>
  <g id="background">
    <g>
      <path class="cls-2" d="M24,47c-12.68,0-23-10.32-23-23S11.32,1,24,1s23,10.32,23,23-10.32,23-23,23Z"/>
      <path class="cls-1" d="M24,2c12.13,0,22,9.87,22,22s-9.87,22-22,22S2,36.13,2,24,11.87,2,24,2M24,0C10.75,0,0,10.75,0,24s10.75,24,24,24,24-10.75,24-24S37.25,0,24,0h0Z"/>
    </g>
  </g>
  <g id="icon">
    <path class="cls-1" d="M34.37,9c.9,0,1.63.73,1.63,1.63v26.73c0,.9-.73,1.63-1.63,1.63H13.63c-.9,0-1.63-.73-1.63-1.63V10.63c0-.9.73-1.63,1.63-1.63h20.73M34.37,7H13.63c-2.01,0-3.63,1.63-3.63,3.63v26.73c0,2.01,1.63,3.63,3.63,3.63h20.73c2.01,0,3.63-1.63,3.63-3.63V10.63c0-2.01-1.63-3.63-3.63-3.63h0Z"/>
    <path class="cls-1" d="M36,18H12c-.55,0-1-.45-1-1s.45-1,1-1h24c.55,0,1,.45,1,1s-.45,1-1,1Z"/>
    <g>
      <path class="cls-1" d="M23.04,30.61l-.91-7.58c-.26-1.29.42-2.04,1.57-2.04h.58c1.22,0,1.92.75,1.64,2.04l-.91,7.58c-.14.7-.35,1.05-.84,1.05h-.33c-.44,0-.63-.35-.8-1.05Z"/>
      <circle class="cls-1" cx="24.02" cy="35" r="2"/>
    </g>
    <path class="cls-1" d="M15.5,11c-.83,0-1.5.67-1.5,1.5s.67,1.5,1.5,1.5,1.5-.67,1.5-1.5-.67-1.5-1.5-1.5h0Z"/>
    <path class="cls-1" d="M20.5,11c-.83,0-1.5.67-1.5,1.5s.67,1.5,1.5,1.5,1.5-.67,1.5-1.5-.67-1.5-1.5-1.5h0Z"/>
    <g>
      <path class="cls-1" d="M33,30c-.26,0-.51-.1-.71-.29l-4-4c-.39-.39-.39-1.02,0-1.41s1.02-.39,1.41,0l4,4c.39.39.39,1.02,0,1.41-.2.2-.45.29-.71.29Z"/>
      <path class="cls-1" d="M29,34c-.26,0-.51-.1-.71-.29-.39-.39-.39-1.02,0-1.41l4-4c.39-.39,1.02-.39,1.41,0s.39,1.02,0,1.41l-4,4c-.2.2-.45.29-.71.29Z"/>
    </g>
    <g>
      <path class="cls-1" d="M15,30c-.26,0-.51-.1-.71-.29-.39-.39-.39-1.02,0-1.41l4-4c.39-.39,1.02-.39,1.41,0s.39,1.02,0,1.41l-4,4c-.2.2-.45.29-.71.29Z"/>
      <path class="cls-1" d="M19,34c-.26,0-.51-.1-.71-.29l-4-4c-.39-.39-.39-1.02,0-1.41s1.02-.39,1.41,0l4,4c.39.39.39,1.02,0,1.41-.2.2-.45.29-.71.29Z"/>
    </g>
  </g>
</svg>