<?xml version="1.0" encoding="UTF-8"?>
<svg id="icon" xmlns="http://www.w3.org/2000/svg" viewBox="0 0 48 48">
  <defs>
    <style>
      .cls-1 {
        fill: #848484;
      }

      .cls-2 {
        fill: #fff;
      }

      .cls-3 {
        fill: #114aa5;
      }
    </style>
  </defs>
  <circle class="cls-2" cx="24" cy="24" r="24"/>
  <g>
    <path class="cls-3" d="M11.03,30.99h5.14l10.19,8.09c.11.09.24.13.38.13.09,0,.18-.02.26-.06.21-.1.35-.32.35-.55V9.39c0-.24-.13-.45-.35-.55-.21-.1-.46-.07-.64.07l-10.19,8.09h-5.14c-.34,0-.61.28-.61.61v12.76c0,.34.28.61.61.61h0Z"/>
    <g>
      <path class="cls-1" d="M34.47,31.18c-.17,0-.34-.07-.45-.21-.21-.25-.17-.62.08-.83,1.84-1.52,2.9-3.75,2.9-6.14s-1.06-4.62-2.9-6.14c-.25-.21-.29-.58-.08-.83.21-.25.58-.29.83-.08,2.11,1.74,3.33,4.31,3.33,7.04s-1.21,5.3-3.33,7.04c-.11.09-.24.13-.37.13Z"/>
      <path class="cls-1" d="M32.57,29.4c-.18,0-.36-.08-.47-.24-.19-.26-.13-.63.13-.82,1.38-1.01,2.2-2.63,2.2-4.33s-.82-3.33-2.2-4.34c-.26-.19-.32-.56-.13-.82.19-.26.56-.32.82-.13,1.68,1.23,2.68,3.21,2.68,5.28s-1,4.05-2.68,5.28c-.1.08-.23.11-.35.11Z"/>
      <path class="cls-1" d="M30.64,27.58c-.21,0-.41-.11-.52-.31-.15-.29-.04-.64.24-.79.92-.49,1.49-1.44,1.49-2.47s-.57-1.99-1.49-2.47c-.29-.15-.4-.51-.25-.79.15-.29.5-.4.79-.25,1.31.69,2.12,2.04,2.12,3.51s-.81,2.82-2.11,3.51c-.09.05-.18.07-.27.07Z"/>
    </g>
  </g>
</svg>