<?xml version="1.0" encoding="UTF-8"?>
<svg id="icon" xmlns="http://www.w3.org/2000/svg" viewBox="0 0 48 48">
  <defs>
    <style>
      .cls-1 {
        fill: #fff;
      }

      .cls-2 {
        fill: #114aa5;
      }
    </style>
  </defs>
  <circle class="cls-1" cx="24" cy="24" r="24"/>
  <g>
    <g>
      <g>
        <polygon class="cls-2" points="28.46 29.9 32.17 29.9 32.17 18.1 28.46 18.1 34.86 8.16 41.26 18.1 37.55 18.1 37.55 29.9 41.26 29.9 34.86 39.84 28.46 29.9"/>
        <path class="cls-2" d="M34.86,9.08l5.49,8.52h-3.3v12.8h3.3l-5.49,8.52-5.49-8.52h3.3v-1s0-1.82,0-1.82v-9.98h-3.3l5.49-8.52M34.86,7.23l-7.32,11.37h4.13v8.98h0v1.82h-4.13l7.32,11.37,7.32-11.37h-4.13v-10.8h4.13l-7.32-11.37h0Z"/>
      </g>
      <g>
        <polygon class="cls-2" points="10.45 39.75 10.45 18.1 6.74 18.1 13.14 8.16 19.54 18.1 15.83 18.1 15.83 39.75 10.45 39.75"/>
        <path class="cls-2" d="M13.14,9.08l5.49,8.52h-3.3v10.45s0,11.2,0,11.2h-4.38v-21.65h-3.3l5.49-8.52M13.14,7.23l-7.32,11.37h4.13v21.65h6.38v-12.2h0v-9.45h4.13l-7.32-11.37h0Z"/>
      </g>
    </g>
    <g>
      <path class="cls-2" d="M21.68,21.43c1.16,0,1.97.51,2.55,1.23l-.65.4c-.41-.53-1.11-.91-1.9-.91-1.44,0-2.53,1.1-2.53,2.67s1.09,2.68,2.53,2.68c.79,0,1.44-.38,1.76-.71v-1.34h-2.26v-.73h3.08v2.38c-.61.68-1.51,1.13-2.58,1.13-1.87,0-3.38-1.37-3.38-3.41s1.51-3.4,3.38-3.4Z"/>
      <path class="cls-2" d="M25,28.12v-6.57h2.64c1.32,0,2.06.91,2.06,1.98s-.76,1.98-2.06,1.98h-1.82v2.61h-.82ZM27.54,22.27h-1.73v2.5h1.73c.78,0,1.31-.51,1.31-1.25s-.53-1.25-1.31-1.25Z"/>
    </g>
  </g>
</svg>