<?xml version="1.0" encoding="UTF-8"?>
<svg id="icon" xmlns="http://www.w3.org/2000/svg" viewBox="0 0 48 48">
  <defs>
    <style>
      .cls-1 {
        fill: #848484;
      }

      .cls-2 {
        fill: #fff;
      }
    </style>
  </defs>
  <g>
    <path class="cls-2" d="M24,47C11.32,47,1,36.68,1,24S11.32,1,24,1s23,10.32,23,23-10.32,23-23,23Z"/>
    <path class="cls-1" d="M24,2c12.13,0,22,9.87,22,22s-9.87,22-22,22S2,36.13,2,24,11.87,2,24,2M24,0C10.75,0,0,10.75,0,24s10.75,24,24,24,24-10.75,24-24S37.25,0,24,0h0Z"/>
  </g>
  <g>
    <g>
      <g>
        <polygon class="cls-1" points="28.01 29.31 31.35 29.31 31.35 18.69 28.01 18.69 33.77 9.74 39.54 18.69 36.19 18.69 36.19 29.31 39.54 29.31 33.77 38.26 28.01 29.31"/>
        <path class="cls-1" d="M33.77,10.57l4.94,7.67h-2.97v11.52h2.97l-4.94,7.67-4.94-7.67h2.97v-.9s0-1.64,0-1.64v-8.98h-2.97l4.94-7.67M33.77,8.91l-6.59,10.23h3.72v8.08h0v1.64h-3.72l6.59,10.23,6.59-10.23h-3.72v-9.72h3.72l-6.59-10.23h0Z"/>
      </g>
      <g>
        <polygon class="cls-1" points="11.81 38.17 11.81 18.69 8.46 18.69 14.23 9.74 19.99 18.69 16.65 18.69 16.65 38.17 11.81 38.17"/>
        <path class="cls-1" d="M14.23,10.57l4.94,7.67h-2.97v9.41s0,10.08,0,10.08h-3.94v-19.49h-2.97l4.94-7.67M14.23,8.91l-6.59,10.23h3.72v19.49h5.74v-10.98h0v-8.51h3.72l-6.59-10.23h0Z"/>
      </g>
    </g>
    <g>
      <path class="cls-1" d="M21.91,21.69c1.05,0,1.77.46,2.3,1.11l-.59.36c-.37-.48-1-.82-1.71-.82-1.3,0-2.28.99-2.28,2.4s.98,2.41,2.28,2.41c.71,0,1.3-.35,1.59-.64v-1.21h-2.03v-.66h2.77v2.14c-.55.61-1.36,1.02-2.32,1.02-1.69,0-3.04-1.23-3.04-3.07s1.36-3.06,3.04-3.06Z"/>
      <path class="cls-1" d="M24.9,27.71v-5.92h2.38c1.19,0,1.85.82,1.85,1.78s-.68,1.78-1.85,1.78h-1.64v2.35h-.74ZM27.19,22.45h-1.55v2.25h1.55c.7,0,1.18-.46,1.18-1.13s-.48-1.13-1.18-1.13Z"/>
    </g>
  </g>
</svg>