<?xml version="1.0" encoding="UTF-8"?>
<svg id="icon" xmlns="http://www.w3.org/2000/svg" viewBox="0 0 48 48">
  <defs>
    <style>
      .cls-1 {
        fill: #848484;
      }

      .cls-2 {
        fill: #fff;
      }
    </style>
  </defs>
  <g>
    <path class="cls-2" d="M24,47.29c-12.68,0-23-10.32-23-23S11.32,1.29,24,1.29s23,10.32,23,23-10.32,23-23,23Z"/>
    <path class="cls-1" d="M24,2.29c12.13,0,22,9.87,22,22s-9.87,22-22,22S2,36.42,2,24.29,11.87,2.29,24,2.29M24,.29C10.75.29,0,11.04,0,24.29s10.75,24,24,24,24-10.75,24-24S37.25.29,24,.29h0Z"/>
  </g>
  <path class="cls-1" d="M36.12,13.81c1.17,0,2.12.95,2.12,2.12v10.63c0,1.17-.95,2.12-2.12,2.12h-12.8l-.57.53-6.58,6.07v-6.6h-4.28c-1.17,0-2.12-.95-2.12-2.12v-10.63c0-1.17.95-2.12,2.12-2.12h24.24M36.12,11.81H11.88c-2.28,0-4.12,1.85-4.12,4.12v10.63c0,2.28,1.84,4.12,4.12,4.12h2.28v9.16l9.94-9.16h12.02c2.28,0,4.12-1.85,4.12-4.12v-10.63c0-2.28-1.85-4.12-4.12-4.12h0Z"/>
  <g>
    <path class="cls-1" d="M33.84,19.73H14.16c-.55,0-1-.45-1-1s.45-1,1-1h19.69c.55,0,1,.45,1,1s-.45,1-1,1Z"/>
    <path class="cls-1" d="M33.84,24.77H14.16c-.55,0-1-.45-1-1s.45-1,1-1h19.69c.55,0,1,.45,1,1s-.45,1-1,1Z"/>
  </g>
</svg>