<?xml version="1.0" encoding="UTF-8"?>
<svg id="icon" xmlns="http://www.w3.org/2000/svg" viewBox="0 0 48 48">
  <defs>
    <style>
      .cls-1 {
        fill: #848484;
      }

      .cls-2 {
        fill: #fff;
      }
    </style>
  </defs>
  <g>
    <path class="cls-2" d="M24,47.29c-12.68,0-23-10.32-23-23S11.32,1.29,24,1.29s23,10.32,23,23-10.32,23-23,23Z"/>
    <path class="cls-1" d="M24,2.29c12.13,0,22,9.87,22,22s-9.87,22-22,22S2,36.42,2,24.29,11.87,2.29,24,2.29M24,.29C10.75.29,0,11.04,0,24.29s10.75,24,24,24,24-10.75,24-24S37.25.29,24,.29h0Z"/>
  </g>
  <g>
    <g>
      <path class="cls-1" d="M14.57,36.34c-1.1,0-2-.9-2-2v-10.38c0-1.1.9-2,2-2s2,.9,2,2v10.38c0,1.1-.9,2-2,2Z"/>
      <polygon class="cls-1" points="6.49 26.33 14.57 12.34 22.65 26.33 6.49 26.33"/>
    </g>
    <g>
      <path class="cls-1" d="M33.43,26.62c-1.1,0-2-.9-2-2v-10.38c0-1.1.9-2,2-2s2,.9,2,2v10.38c0,1.1-.9,2-2,2Z"/>
      <polygon class="cls-1" points="41.51 22.26 33.43 36.24 25.35 22.26 41.51 22.26"/>
    </g>
  </g>
</svg>