<?xml version="1.0" encoding="UTF-8"?>
<svg id="icon" xmlns="http://www.w3.org/2000/svg" viewBox="0 0 48 48">
  <defs>
    <style>
      .cls-1 {
        fill: #848484;
      }

      .cls-2 {
        fill: #fff;
      }
    </style>
  </defs>
  <g>
    <path class="cls-2" d="M24,47.29c-12.68,0-23-10.32-23-23S11.32,1.29,24,1.29s23,10.32,23,23-10.32,23-23,23Z"/>
    <path class="cls-1" d="M24,2.29c12.13,0,22,9.87,22,22s-9.87,22-22,22S2,36.42,2,24.29,11.87,2.29,24,2.29M24,.29C10.75.29,0,11.04,0,24.29s10.75,24,24,24,24-10.75,24-24S37.25.29,24,.29h0Z"/>
  </g>
  <g>
    <path class="cls-2" d="M28.77,22.19v12.83c0,.86-.7,1.57-1.57,1.57h-15.96c-.86,0-1.57-.7-1.57-1.57v-13.27c0-.86.7-1.57,1.57-1.57h15.52c1.1,0,2,.9,2,2Z"/>
    <path class="cls-1" d="M27.2,37.59h-15.96c-1.42,0-2.57-1.15-2.57-2.57v-13.27c0-1.42,1.15-2.57,2.57-2.57h15.52c1.65,0,3,1.35,3,3v12.83c0,1.42-1.15,2.57-2.57,2.57ZM11.25,21.19c-.31,0-.57.25-.57.57v13.27c0,.31.25.57.57.57h15.96c.31,0,.57-.25.57-.57v-12.83c0-.55-.45-1-1-1h-15.52Z"/>
  </g>
  <path class="cls-1" d="M36.75,29.39h-8.98v-7.63c0-.31-.25-.57-.57-.57h-8.97v-7.63c0-1.42,1.15-2.57,2.57-2.57h15.96c1.42,0,2.57,1.15,2.57,2.57v13.27c0,1.42-1.15,2.57-2.57,2.57ZM29.77,27.39h6.98c.31,0,.57-.25.57-.57v-13.27c0-.31-.25-.57-.57-.57h-15.96c-.31,0-.57.25-.57.57v5.63h6.97c1.42,0,2.57,1.15,2.57,2.57v5.63Z"/>
  <polygon class="cls-1" points="21.75 34.25 16.45 28.62 10.31 33.63 9.05 32.08 16.63 25.89 21.86 31.45 28.16 25.75 29.5 27.23 21.75 34.25"/>
  <path class="cls-1" d="M22.5,24.26c-.83,0-1.5.67-1.5,1.5s.67,1.5,1.5,1.5,1.5-.67,1.5-1.5-.67-1.5-1.5-1.5h0Z"/>
  <g>
    <g>
      <rect class="cls-1" x="32.65" y="12.25" width="2" height="2"/>
      <rect class="cls-1" x="32.65" y="16.88" width="2" height="2"/>
      <rect class="cls-1" x="32.65" y="21.51" width="2" height="2"/>
      <rect class="cls-1" x="32.65" y="26.13" width="2" height="2"/>
    </g>
    <g>
      <rect class="cls-1" x="22.9" y="12.25" width="2" height="2"/>
      <rect class="cls-1" x="22.9" y="16.88" width="2" height="2"/>
    </g>
  </g>
</svg>