<?xml version="1.0" encoding="UTF-8"?>
<svg id="icon" xmlns="http://www.w3.org/2000/svg" viewBox="0 0 48 48">
  <defs>
    <style>
      .cls-1 {
        fill: #848484;
      }

      .cls-2 {
        fill: #fff;
      }
    </style>
  </defs>
  <circle class="cls-2" cx="24" cy="24" r="24"/>
  <g>
    <g>
      <path class="cls-1" d="M26.33,18.8c.83,0,1.5.67,1.5,1.5v9.94c0,.83-.67,1.5-1.5,1.5h-9.05l-.41.37-4.66,4.29v-4.66h-3.02c-.83,0-1.5-.67-1.5-1.5v-9.94c0-.83.67-1.5,1.5-1.5h17.14ZM26.33,17.38H9.18c-1.61,0-2.92,1.31-2.92,2.92v9.94c0,1.61,1.3,2.92,2.92,2.92h1.61v6.48l7.03-6.48h8.5c1.61,0,2.92-1.31,2.92-2.92v-9.94c0-1.61-1.31-2.92-2.92-2.92h0Z"/>
      <g>
        <path class="cls-1" d="M24.72,24.2h-13.92c-.39,0-.71-.32-.71-.71s.32-.71.71-.71h13.92c.39,0,.71.32.71.71s-.32.71-.71.71Z"/>
        <path class="cls-1" d="M24.72,27.76h-13.92c-.39,0-.71-.32-.71-.71s.32-.71.71-.71h13.92c.39,0,.71.32.71.71s-.32.71-.71.71Z"/>
      </g>
    </g>
    <g>
      <path class="cls-1" d="M36.81,9.36h-17.14c-1.61,0-2.92,1.31-2.92,2.92v3.9h1.41v-3.9c0-.83.67-1.5,1.5-1.5h17.14c.83,0,1.5.67,1.5,1.5v9.94c0,.83-.67,1.5-1.5,1.5h-6.15v1.41h6.15c1.61,0,2.92-1.31,2.92-2.92v-9.94c0-1.61-1.31-2.92-2.92-2.92Z"/>
      <g>
        <path class="cls-1" d="M35.21,16.18h-13.92c-.39,0-.71-.32-.71-.71s.32-.71.71-.71h13.92c.39,0,.71.32.71.71s-.32.71-.71.71Z"/>
        <path class="cls-1" d="M35.21,18.32h-5.12v1.41h5.12c.39,0,.71-.32.71-.71s-.32-.71-.71-.71Z"/>
      </g>
    </g>
  </g>
</svg>