<?xml version="1.0" encoding="UTF-8"?>
<svg xmlns="http://www.w3.org/2000/svg" xmlns:xlink="http://www.w3.org/1999/xlink" viewBox="0 0 48 48">
  <defs>
    <style>
      .cls-1 {
        fill: none;
      }

      .cls-1, .cls-2, .cls-3 {
        stroke-width: 0px;
      }

      .cls-2 {
        fill: #fff;
      }

      .cls-3 {
        fill: #ff8500;
      }

      .cls-4 {
        clip-path: url(#clippath);
      }
    </style>
    <clipPath id="clippath">
      <circle class="cls-1" cx="24" cy="24" r="24"/>
    </clipPath>
  </defs>
  <g id="background">
    <circle class="cls-3" cx="24" cy="24" r="24"/>
  </g>
  <g id="icon">
    <path class="cls-2" d="m10,18c-.55,0-1-.45-1-1v-4c0-1.1.9-2,2-2h4c.55,0,1,.45,1,1s-.45,1-1,1h-4v4c0,.55-.45,1-1,1Z"/>
    <path class="cls-2" d="m38,18c-.55,0-1-.45-1-1v-4h-4c-.55,0-1-.45-1-1s.45-1,1-1h4c1.1,0,2,.9,2,2v4c0,.55-.45,1-1,1Z"/>
    <path class="cls-2" d="m15,31h-4c-1.1,0-2-.9-2-2v-4c0-.55.45-1,1-1s1,.45,1,1v4h4c.55,0,1,.45,1,1s-.45,1-1,1Z"/>
    <path class="cls-2" d="m37,31h-4c-.55,0-1-.45-1-1s.45-1,1-1h4v-4c0-.55.45-1,1-1s1,.45,1,1v4c0,1.1-.9,2-2,2Z"/>
    <g class="cls-4">
      <path class="cls-2" d="m40,57.3c-.51,0-.94-.39-.99-.9-.13-1.33-.25-2.73-.38-4.15-.53-6.06-1.14-12.93-2.5-15.44-.73-1.33-3.08-1.73-4.21-1.92-.29-.05-.53-.09-.68-.13l-2.23-.74-1.44-.63-.98-.66-.4-.42-.31-.53-.15-.47v-2.77s.97-1.05.97-1.05l.73-1.15.5-1.17.18-.49.74-.2v-1.54l-.52-.41-.04-4.03-.09-.28-.15-.28-.55-.56-.52-.28-.61-.21-1.2-.2-.97-.04h-.25s-.18,0-.18,0l-1.42.09-1.11.26-.72.36-.17.13-.39.44-.15.28-.13.54v.23s-.38-.02-.38-.02l-.62.14,1-.08v.12s.01,3.39.01,3.39l-.52.41.02,1.54.71.19.7,1.7,1.23,1.73.44.43v2.76s-.26.73-.26.73l-.32.44-.38.36-.8.53-1.47.65-2.26.75c-.16.04-.39.08-.68.13-1.13.19-3.49.59-4.21,1.92-1.36,2.5-1.97,9.38-2.5,15.44-.12,1.42-.25,2.82-.38,4.15-.05.55-.54.94-1.09.9-.55-.05-.95-.54-.9-1.09.13-1.32.25-2.71.38-4.13.58-6.56,1.17-13.35,2.74-16.22,1.19-2.19,4.19-2.7,5.63-2.94.2-.03.36-.06.48-.09l3.32-1.24.72-.59v-1.65s-.78-.98-.78-.98l-.66-1.09-.45-.98-.4-.17-.6-.61-.22-.9v-2.29l.33-.63.19-.15v-2.41s.99-.13.99-.13l-1-.03v-.05s.12-.97.12-.97l.21-.6.38-.66.68-.74.66-.46.86-.39.96-.26,1.06-.15,1.16-.05h.3s.14,0,.14,0l1.15.05,1.05.15.95.25.85.37.88.63.67.8.31.62.17.58.09.84v.26s-.02,2.37-.02,2.37l.19.15.33.63-.04,2.56-.18.62-.6.61-.39.17-.42.94-.66,1.09-.8,1.01v1.66l.2.23.58.38,1.17.51,2.08.69c.12.03.28.05.48.09,1.44.25,4.44.75,5.63,2.94,1.56,2.87,2.16,9.66,2.74,16.22.12,1.42.25,2.81.38,4.13.05.55-.35,1.04-.9,1.09-.03,0-.07,0-.1,0Z"/>
    </g>
  </g>
</svg>