<?xml version="1.0" encoding="UTF-8"?>
<svg xmlns="http://www.w3.org/2000/svg" viewBox="0 0 48 48">
  <defs>
    <style>
      .cls-1 {
        fill: #df0031;
      }

      .cls-1, .cls-2 {
        stroke-width: 0px;
      }

      .cls-2 {
        fill: #fff;
      }
    </style>
  </defs>
  <g id="background">
    <circle class="cls-1" cx="24" cy="24" r="24"/>
  </g>
  <g id="icon">
    <path class="cls-2" d="m27.14,39c-.07,0-.14,0-.22-.02l-10.85-1.82c-1.3-.5-1.4-1.4-1.37-1.84l-.03-5.69-.12-.54-.2-.48-.25-.43-1.09-1.49-.7-1.26-.53-1.33-.36-1.4-.19-1.43-.03-.73.04-.93.11-.92.18-.9.25-.87.31-.84.38-.81.44-.77.49-.73.55-.69.6-.65.64-.6.69-.55.73-.5.77-.44.81-.38.84-.32.87-.26.9-.19.92-.12.98-.04.9.04.92.11.9.18.87.25.84.32.81.38.77.44.74.49.69.55.65.6.6.65.55.69.5.73.44.77.38.81.32.84.25.87.19.9.16,1.86v1.58c.01.43.87,1.82,1.32,2.57.63,1.03,1.02,1.68,1.17,2.23.32,1.16-.07,1.96-1.16,2.37-.05.02-.1.03-.14.06l-.29.09c-.32.05-.62.03-.91.01v3.22c-.03.85-.43,1.65-1.09,2.17-.62.49-1.38.68-2.13.54l-2.02-.33v2.16c.02.56-.33,1.11-.68,1.42-.33.3-.73.46-1.12.46Zm-.2-1.9s0,.04,0,.06v-.06Zm0-.05s0,0,0,0h0s0,0,0,0Zm-10.23-1.78l10.23,1.7v-4.36s4.38.73,4.38.73c.21.04.38,0,.53-.13.2-.16.33-.41.33-.64v-5.07s.88-.1.88-.1c.51-.06.91-.03,1.24,0,.14.01.27.02.37.02.02,0,.05-.02.07-.03-.09-.31-.56-1.08-.95-1.71-.98-1.6-1.62-2.71-1.62-3.62l-.03-2.36-.1-.76-.16-.74-.21-.72-.27-.69-.32-.67-.37-.64-.41-.6-.46-.57-.5-.53-.54-.49-.57-.45-.61-.41-.64-.36-.67-.31-.69-.26-.72-.21-.74-.15-.76-.09-.74-.03-.82.03-.76.1-.74.15-.72.21-.69.26-.67.32-.64.37-.6.41-.57.46-.53.5-.49.54-.45.57-.41.61-.36.64-.31.67-.26.7-.21.72-.15.74-.09.76-.03.78.08,1.19.23,1.17.37,1.13.51,1.08.64,1,.76,1.01.38.66.31.78.18.86.03.5v5.35s0,0,.01,0Z"/>
    <g>
      <path class="cls-2" d="m10.63,21.11c-4.12,0-5.41-1.28-5.76-2.38-.47-1.46.46-3.09,2.75-4.86.44-.34,1.07-.26,1.4.18.34.44.26,1.06-.18,1.4-1.85,1.43-2.17,2.35-2.07,2.67.12.37,1.18,1.06,4.33.98,2.96-.07,6.72-.8,10.59-2.03,8.96-2.87,13.13-6.66,12.76-7.81-.15-.48-1.59-1.13-4.94-.96-.58.03-1.02-.4-1.05-.95-.03-.55.39-1.02.95-1.05,3.99-.21,6.39.6,6.95,2.34,1.11,3.47-6.23,7.82-14.06,10.32-4.04,1.29-8,2.05-11.15,2.13-.18,0-.36,0-.53,0Z"/>
      <g>
        <circle class="cls-2" cx="22" cy="18" r="3.5"/>
        <path class="cls-1" d="m22,15c1.66,0,3,1.34,3,3s-1.34,3-3,3-3-1.34-3-3,1.34-3,3-3m0-1c-2.21,0-4,1.79-4,4s1.79,4,4,4,4-1.79,4-4-1.79-4-4-4h0Z"/>
      </g>
      <g>
        <circle class="cls-2" cx="35" cy="11" r="2.5"/>
        <path class="cls-1" d="m35,9c1.1,0,2,.9,2,2s-.9,2-2,2-2-.9-2-2,.9-2,2-2m0-1c-1.65,0-3,1.35-3,3s1.35,3,3,3,3-1.35,3-3-1.35-3-3-3h0Z"/>
      </g>
      <g>
        <circle class="cls-2" cx="7" cy="19" r="2.5"/>
        <path class="cls-1" d="m7,17c1.1,0,2,.9,2,2s-.9,2-2,2-2-.9-2-2,.9-2,2-2m0-1c-1.65,0-3,1.35-3,3s1.35,3,3,3,3-1.35,3-3-1.35-3-3-3h0Z"/>
      </g>
    </g>
  </g>
</svg>