<?xml version="1.0" encoding="UTF-8"?>
<svg xmlns="http://www.w3.org/2000/svg" viewBox="0 0 48 48">
  <defs>
    <style>
      .cls-1 {
        fill: #df0031;
      }

      .cls-1, .cls-2 {
        stroke-width: 0px;
      }

      .cls-2 {
        fill: #fff;
      }
    </style>
  </defs>
  <g id="background">
    <circle class="cls-1" cx="24" cy="24" r="24"/>
    <g>
      <path class="cls-2" d="m37,12h-6c-.55,0-1-.45-1-1s.45-1,1-1h6c.55,0,1,.45,1,1s-.45,1-1,1Z"/>
      <path class="cls-2" d="m37,18h-6c-.55,0-1-.45-1-1s.45-1,1-1h6c.55,0,1,.45,1,1s-.45,1-1,1Z"/>
      <path class="cls-2" d="m31,18c-.26,0-.51-.1-.71-.29-.39-.39-.39-1.02,0-1.41l6-6c.39-.39,1.02-.39,1.41,0s.39,1.02,0,1.41l-6,6c-.2.2-.45.29-.71.29Z"/>
    </g>
    <g>
      <path class="cls-2" d="m28,21h-6c-.55,0-1-.45-1-1s.45-1,1-1h6c.55,0,1,.45,1,1s-.45,1-1,1Z"/>
      <path class="cls-2" d="m28,27h-6c-.55,0-1-.45-1-1s.45-1,1-1h6c.55,0,1,.45,1,1s-.45,1-1,1Z"/>
      <path class="cls-2" d="m22,27c-.26,0-.51-.1-.71-.29-.39-.39-.39-1.02,0-1.41l6-6c.39-.39,1.02-.39,1.41,0s.39,1.02,0,1.41l-6,6c-.2.2-.45.29-.71.29Z"/>
    </g>
  </g>
  <g id="icon">
    <path class="cls-2" d="m12.49,11.44c-.68,1.97-1.04,4.06-1.04,6.2,0,10.43,8.48,18.91,18.91,18.91,2.14,0,4.23-.35,6.2-1.04-3.15,3.43-7.64,5.49-12.54,5.49-9.39,0-17.02-7.64-17.02-17.02,0-4.9,2.06-9.39,5.49-12.54m5.73-5.58h0,0Zm0,0c-7.67,2.45-13.22,9.64-13.22,18.12,0,10.51,8.52,19.02,19.02,19.02,8.48,0,15.66-5.55,18.12-13.22-3.04,2.95-7.2,4.77-11.77,4.77-9.34,0-16.91-7.57-16.91-16.91,0-4.58,1.82-8.73,4.77-11.77h0Z"/>
  </g>
</svg>