<?xml version="1.0" encoding="UTF-8"?>
<svg xmlns="http://www.w3.org/2000/svg" viewBox="0 0 48 48">
  <defs>
    <style>
      .cls-1 {
        fill: #fff;
      }

      .cls-2 {
        fill: #df0031;
      }
    </style>
  </defs>
  <g id="background">
    <circle class="cls-2" cx="24" cy="24" r="24"/>
    <g>
      <path class="cls-1" d="M24.69,41h-7.19c-.55,0-1-.45-1-1s.45-1,1-1h7.19c.55,0,1,.45,1,1s-.45,1-1,1Z"/>
      <polygon class="cls-1" points="23.51 35.96 30.5 40 23.51 44.04 23.51 35.96"/>
    </g>
  </g>
  <g id="icon">
    <path class="cls-1" d="M13.81,33.59c-.07,0-.14,0-.21,0-2.38-.09-3.52-1.49-4.07-2.17-.07-.08-.13-.16-.18-.22l-.31-.42-.58-.95-.58-1.23-.36-1-.52-.49-.29-1.04v-2.68s.32-.66.32-.66l.25-.21.04-3.92.14-.62.28-.69.42-.68.71-.74.76-.51.97-.43,1.09-.29,1.2-.16,1.14-.04,1.24.06,1.17.17,1.06.29.94.43.95.71.73.91.34.7.19.65.1.9v.29s-.02,2.96-.02,2.96l.25.21.33.66-.03,2.91-.19.69-.63.67-.48.22-.5,1.17-.72,1.27-.49.69c-.48.7-1.79,2.59-4.46,2.59ZM10.87,29.91c.06.07.13.16.21.25.47.58,1.12,1.38,2.59,1.43,1.47.06,2.32-.81,2.97-1.75l.86-1.32.52-1.11.41-1.16.85-.27.02-.08v-1.97s-.58-.48-.58-.48l.02-4.19-.07-.53-.11-.37-.18-.36-.66-.71-.59-.34-.7-.25-.86-.18-1.02-.09h-.55s-1.47.08-1.47.08l-.9.18-.74.26-.53.29-.44.37-.18.21-.24.4-.14.38-.1.67.02.36v3.82l-.58.48.02,2.05.22.16.36.21.24.95.43,1.1.9,1.51Z"/>
    <path class="cls-1" d="M33.81,33.59c-.07,0-.14,0-.21,0-2.38-.09-3.52-1.49-4.07-2.17-.07-.08-.13-.16-.18-.22l-.31-.42-.58-.95-.58-1.23-.36-1-.52-.49-.29-1.04v-2.68s.32-.66.32-.66l.25-.21.04-3.92.14-.62.28-.69.42-.68.71-.74.76-.51.97-.43,1.09-.29,1.2-.16,1.14-.04,1.24.06,1.17.17,1.06.29.94.43.95.71.73.91.34.7.19.65.1.9v.29s-.02,2.96-.02,2.96l.25.21.33.66-.03,2.91-.19.69-.63.67-.48.22-.5,1.17-.72,1.27-.49.69c-.48.7-1.79,2.59-4.46,2.59ZM30.87,29.91c.06.07.13.16.21.25.47.58,1.12,1.38,2.59,1.43,1.46.06,2.32-.81,2.97-1.75l.86-1.32.52-1.11.41-1.16.85-.27.02-.08v-1.97s-.58-.48-.58-.48l.02-4.19-.07-.53-.11-.37-.18-.36-.66-.71-.59-.34-.7-.25-.86-.18-1.02-.09h-.55s-1.47.08-1.47.08l-.9.18-.74.26-.53.29-.44.37-.18.21-.24.4-.14.38-.1.67.02.36v3.82l-.58.48.02,2.05.22.16.36.21.24.95.43,1.1.9,1.51Z"/>
  </g>
</svg>