<?xml version="1.0" encoding="UTF-8"?>
<svg xmlns="http://www.w3.org/2000/svg" viewBox="0 0 48 48">
  <defs>
    <style>
      .cls-1 {
        fill: #df0031;
      }

      .cls-1, .cls-2 {
        stroke-width: 0px;
      }

      .cls-2 {
        fill: #fff;
      }
    </style>
  </defs>
  <g id="background">
    <circle class="cls-1" cx="24" cy="24" r="24"/>
  </g>
  <g id="icon">
    <path class="cls-2" d="m36,38.22c-.51,0-.94-.39-.99-.9-.1-1-.19-2.05-.29-3.12-.4-4.52-.85-9.65-1.85-11.48-.49-.89-2.17-1.18-2.98-1.32-.23-.04-.41-.07-.53-.1l-1.7-.56-1.11-.48-.8-.54-.33-.35-.26-.46-.13-.39v-2.22s.93-1.04.93-1.04l.58-1.07.33-.89.49-.13v-.85s-.39-.3-.39-.3v-2.76s-.02-.32-.02-.32l-.14-.34-.35-.36-.55-.27-.76-.17-1.02-.06h-.19s-.13,0-.13,0l-1.32.12-.96.37-.1.08-.34.45-.09.49v.1s.01,2.66.01,2.66l-.39.31v.84l.49.13.8,1.79.73.91.3.29v2.14s-.16.61-.16.61l-.35.48-.57.48-.75.42-2.48.89c-.12.03-.3.06-.53.1-.81.14-2.5.42-2.98,1.32-1,1.83-1.45,6.96-1.85,11.48-.09,1.07-.19,2.12-.29,3.12-.05.55-.53.95-1.09.9-.55-.05-.95-.54-.9-1.09.1-.99.19-2.03.28-3.09.44-4.95.89-10.06,2.08-12.26.95-1.75,3.28-2.14,4.41-2.33.13-.02.25-.04.33-.06l2.45-.91.4-.29v-1.07s-.72-.96-.72-.96l-.71-1.27-.18-.08-.53-.54-.19-.8v-1.78l.39-.64v-1.9s.1-.76.1-.76l.17-.49.32-.54.83-.8.56-.31.72-.26,1.21-.21.89-.04h.16s.17,0,.17,0l1.29.08,1.14.26.68.29.74.53.54.65.25.51.2.88v.25s0,.22,0,.22v1.64s.08.07.08.07l.3.57-.04,2.06-.15.53-.53.54-.26.14-.6,1.17-.74,1v1.07s.26.21.26.21l1.05.48,1.54.51c.08.02.2.04.33.06,1.12.19,3.45.58,4.41,2.33,1.2,2.2,1.65,7.31,2.08,12.26.09,1.06.18,2.11.28,3.09.05.55-.35,1.04-.9,1.09-.03,0-.07,0-.1,0Z"/>
    <g>
      <path class="cls-2" d="m30,41c-.26,0-.51-.1-.71-.29l-12-12c-.39-.39-.39-1.02,0-1.41s1.02-.39,1.41,0l12,12c.39.39.39,1.02,0,1.41-.2.2-.45.29-.71.29Z"/>
      <path class="cls-2" d="m18,41c-.26,0-.51-.1-.71-.29-.39-.39-.39-1.02,0-1.41l12-12.01c.39-.39,1.02-.39,1.41,0,.39.39.39,1.02,0,1.41l-12,12.01c-.2.2-.45.29-.71.29Z"/>
    </g>
  </g>
</svg>