<?xml version="1.0" encoding="UTF-8"?>
<svg xmlns="http://www.w3.org/2000/svg" viewBox="0 0 48 48">
  <defs>
    <style>
      .cls-1 {
        fill: #848484;
      }

      .cls-2 {
        fill: #fff;
      }
    </style>
  </defs>
  <g id="background">
    <circle class="cls-1" cx="24" cy="24" r="24"/>
  </g>
  <g id="icon">
    <path class="cls-2" d="M23.77,35c-.08,0-.16,0-.24,0-2.7-.1-3.95-1.63-4.62-2.46-.08-.1-.15-.19-.22-.26l-.07-.09-.6-.89-.69-1.26-.32-.75-.38-1.15-.66-.62-.32-1.16v-3.05l.35-.71.33-.27.04-4.61.16-.7.31-.78.48-.77.39-.46.87-.71.41-.25.54-.26.57-.22,1.24-.33,1.38-.18,1.31-.05,1.44.06,1.34.2,1.21.34,1.07.49.57.37.49.42.83,1.03.38.79.21.73.11,1.04v.32s-.02,3.54-.02,3.54l.33.27.35.7-.04,3.31-.21.76-.68.73-.58.27-.6,1.41-.83,1.46-.56.79c-.55.8-2.04,2.95-5.07,2.95ZM20.22,30.98c.07.08.16.18.24.29.57.7,1.35,1.66,3.14,1.73,1.82.07,2.82-.98,3.6-2.11l.77-1.13.66-1.28.64-1.72.93-.29.08-.08.04-.15v-2.39l-.68-.57.02-4.79-.08-.66-.14-.46-.23-.45-.56-.67-.6-.43-.76-.34-.93-.26-1.12-.16-1.27-.05-1.13.04-1.16.15-.98.26-.79.35-.57.39-.47.5-.29.49-.17.46-.12.76.02.48v4.38l-.68.56.04,2.56.31.24.36.21.27,1.04.24.68.56,1.18.79,1.23Z"/>
    <g>
      <path class="cls-2" d="M6.26,22c-.05,0-.11,0-.17-.01-.54-.09-.91-.61-.82-1.15,1.53-9.17,9.41-15.83,18.73-15.83,7.04,0,13.47,3.87,16.78,10.09.26.49.07,1.09-.41,1.35-.49.26-1.09.07-1.35-.41-2.96-5.57-8.71-9.03-15.01-9.03-8.34,0-15.38,5.96-16.75,14.17-.08.49-.5.83-.99.83Z"/>
      <polygon class="cls-2" points="35.61 15.9 41.74 21 43.1 13.14 35.61 15.9"/>
    </g>
    <g>
      <path class="cls-2" d="M24,43c-7.04,0-13.47-3.87-16.78-10.09-.26-.49-.07-1.09.41-1.35.49-.26,1.09-.08,1.35.41,2.96,5.57,8.71,9.03,15.01,9.03,8.34,0,15.38-5.96,16.75-14.17.09-.54.6-.92,1.15-.82.54.09.91.61.82,1.15-1.53,9.17-9.41,15.83-18.73,15.83Z"/>
      <polygon class="cls-2" points="4.9 34.86 6.26 27 12.39 32.1 4.9 34.86"/>
    </g>
  </g>
</svg>