<?xml version="1.0" encoding="UTF-8"?>
<svg xmlns="http://www.w3.org/2000/svg" viewBox="0 0 48 48">
  <defs>
    <style>
      .cls-1 {
        fill: #df0031;
      }

      .cls-1, .cls-2 {
        stroke-width: 0px;
      }

      .cls-2 {
        fill: #fff;
      }
    </style>
  </defs>
  <g id="background">
    <circle class="cls-1" cx="24" cy="24" r="24"/>
  </g>
  <g id="icon">
    <path class="cls-2" d="m36,38.22c-.51,0-.94-.39-.99-.9-.1-1-.19-2.05-.29-3.12-.4-4.52-.85-9.65-1.85-11.48-.49-.89-2.17-1.18-2.98-1.32-.23-.04-.41-.07-.53-.1l-1.7-.56-1.11-.48-.8-.54-.33-.35-.26-.46-.13-.39v-2.22s.93-1.04.93-1.04l.58-1.07.33-.89.49-.13v-.85s-.39-.3-.39-.3v-2.76s-.02-.32-.02-.32l-.14-.34-.35-.36-.55-.27-.76-.17-1.02-.06h-.19s-.13,0-.13,0l-1.32.12-.96.37-.1.08-.34.45-.09.49v.1s.01,2.66.01,2.66l-.39.31v.84l.49.13.8,1.79.73.91.3.29v2.14s-.16.61-.16.61l-.35.48-.57.48-.75.42-2.48.89c-.12.03-.3.06-.53.1-.81.14-2.5.42-2.98,1.32-1,1.83-1.45,6.96-1.85,11.48-.09,1.07-.19,2.12-.29,3.12-.05.55-.53.95-1.09.9-.55-.05-.95-.54-.9-1.09.1-.99.19-2.03.28-3.09.44-4.95.89-10.06,2.08-12.26.95-1.75,3.28-2.14,4.41-2.33.13-.02.25-.04.33-.06l2.45-.91.4-.29v-1.07s-.72-.96-.72-.96l-.71-1.27-.18-.08-.53-.54-.19-.8v-1.78l.39-.64v-1.9s.1-.76.1-.76l.17-.49.32-.54.83-.8.56-.31.72-.26,1.21-.21.89-.04h.16s.17,0,.17,0l1.29.08,1.14.26.68.29.74.53.54.65.25.51.2.88v.25s0,.22,0,.22v1.64s.08.07.08.07l.3.57-.04,2.06-.15.53-.53.54-.26.14-.6,1.17-.74,1v1.07s.26.21.26.21l1.05.48,1.54.51c.08.02.2.04.33.06,1.12.19,3.45.58,4.41,2.33,1.2,2.2,1.65,7.31,2.08,12.26.09,1.06.18,2.11.28,3.09.05.55-.35,1.04-.9,1.09-.03,0-.07,0-.1,0Z"/>
    <path class="cls-2" d="m23.93,36.47h0c-.6,0-1.08-.42-1.08-.93.01-.8.03-1.32.06-1.56.04-.33.14-.66.32-.99.18-.33.39-.58.61-.77.23-.18.76-.48,1.61-.88.92-.44,1.55-.77,1.89-1.02.35-.24.65-.58.91-1.01.26-.43.38-.9.38-1.41,0-.97-.41-1.74-1.24-2.29-.83-.55-1.81-.83-2.93-.83-2.26,0-3.75.99-4.45,2.96-.16.45-.7.73-1.25.63l-.15-.03c-.62-.11-.99-.65-.81-1.16.96-2.79,3.22-4.19,6.78-4.19,2.01,0,3.64.47,4.87,1.4s1.86,2.13,1.86,3.59c0,1.9-1.29,3.42-3.86,4.56-1.13.5-1.82.9-2.07,1.18-.25.29-.38.73-.38,1.34v.49c.01.51-.47.92-1.07.92Z"/>
    <circle class="cls-2" cx="24" cy="40" r="2"/>
  </g>
</svg>