<?xml version="1.0" encoding="UTF-8"?>
<svg xmlns="http://www.w3.org/2000/svg" viewBox="0 0 48 48">
  <defs>
    <style>
      .cls-1 {
        fill: #df0031;
      }

      .cls-1, .cls-2 {
        stroke-width: 0px;
      }

      .cls-2 {
        fill: #fff;
      }
    </style>
  </defs>
  <g id="background">
    <circle class="cls-1" cx="24" cy="24" r="24"/>
  </g>
  <g id="icon">
    <g>
      <path class="cls-2" d="m24,21c7.49,0,14.12,7.15,16.46,10-2.35,2.86-8.97,10-16.46,10s-14.12-7.15-16.46-10c2.35-2.86,8.97-10,16.46-10m0-2c-10.49,0-19,12-19,12,0,0,8.51,12,19,12s19-12,19-12c0,0-8.51-12-19-12h0Z"/>
      <path class="cls-2" d="m41.76,31.97c-.08-.02-8.07-1.97-17.76-1.97s-17.68,1.95-17.76,1.97l-.48-1.94c.33-.08,8.29-2.03,18.24-2.03s17.91,1.95,18.24,2.03l-.48,1.94Z"/>
      <path class="cls-2" d="m24,38c-3.86,0-7-3.14-7-7,0-.71.11-1.42.32-2.09.16-.53.72-.82,1.25-.66.53.17.82.73.66,1.25-.15.48-.23.98-.23,1.49,0,2.76,2.24,5,5,5s5-2.24,5-5c0-.51-.08-1.01-.23-1.49-.17-.53.13-1.09.66-1.25.52-.16,1.09.13,1.25.66.21.68.32,1.38.32,2.09,0,3.86-3.14,7-7,7Z"/>
    </g>
    <g>
      <path class="cls-2" d="m37,12h-6c-.55,0-1-.45-1-1s.45-1,1-1h6c.55,0,1,.45,1,1s-.45,1-1,1Z"/>
      <path class="cls-2" d="m37,18h-6c-.55,0-1-.45-1-1s.45-1,1-1h6c.55,0,1,.45,1,1s-.45,1-1,1Z"/>
      <path class="cls-2" d="m31,18c-.26,0-.51-.1-.71-.29-.39-.39-.39-1.02,0-1.41l6-6c.39-.39,1.02-.39,1.41,0s.39,1.02,0,1.41l-6,6c-.2.2-.45.29-.71.29Z"/>
    </g>
  </g>
</svg>