<?xml version="1.0" encoding="UTF-8"?>
<svg id="Layer_2" xmlns="http://www.w3.org/2000/svg" viewBox="0 0 48 48">
  <defs>
    <style>
      .cls-1 {
        fill: #ff8500;
      }

      .cls-2 {
        fill: #fff;
      }
    </style>
  </defs>
  <g id="icon">
    <g>
      <circle class="cls-1" cx="24" cy="24" r="24"/>
      <path class="cls-2" d="M28.67,10l5.33,5.33v19.04c0,.9-.73,1.63-1.63,1.63H15.63c-.9,0-1.63-.73-1.63-1.63V11.63c0-.9.73-1.63,1.63-1.63h13.04M29.49,8h-13.87c-2,0-3.63,1.62-3.63,3.63v22.75c0,2,1.62,3.63,3.63,3.63h16.75c2,0,3.63-1.62,3.63-3.63V14.51c-2.54-2.54-3.97-3.97-6.51-6.51h0Z"/>
      <rect class="cls-1" x="18" y="35" width="12" height="4"/>
      <path class="cls-2" d="M28.5,22.13l-7-4.04c-.67-.38-1.5.1-1.5.87v8.08c0,.77.83,1.25,1.5.87l7-4.04c.67-.38.67-1.35,0-1.73Z"/>
      <g>
        <path class="cls-2" d="M24,39.69c-.55,0-1-.45-1-1v-7.19c0-.55.45-1,1-1s1,.45,1,1v7.19c0,.55-.45,1-1,1Z"/>
        <polygon class="cls-2" points="28.04 37.51 24 44.5 19.96 37.51 28.04 37.51"/>
      </g>
    </g>
  </g>
</svg>