<?xml version="1.0" encoding="UTF-8"?>
<svg id="icon" xmlns="http://www.w3.org/2000/svg" xmlns:xlink="http://www.w3.org/1999/xlink" viewBox="0 0 48 48">
  <defs>
    <style>
      .cls-1 {
        fill: #fff;
      }

      .cls-2 {
        fill: #df0031;
      }

      .cls-3 {
        fill: none;
      }

      .cls-4 {
        clip-path: url(#clippath);
      }
    </style>
    <clipPath id="clippath">
      <circle class="cls-3" cx="24" cy="24" r="24"/>
    </clipPath>
  </defs>
  <circle class="cls-2" cx="24" cy="24" r="24"/>
  <g>
    <path class="cls-1" d="M24.69,41h-7.19c-.55,0-1-.45-1-1s.45-1,1-1h7.19c.55,0,1,.45,1,1s-.45,1-1,1Z"/>
    <polygon class="cls-1" points="23.51 35.96 30.5 40 23.51 44.04 23.51 35.96"/>
  </g>
  <path class="cls-1" d="M31.5,13.12c.17-1.6.37-3.2.6-4.79l.68.38c-1.5,1.63-3.07,3.24-4.61,4.84-.49-1.62-1.02-3.29-1.5-4.91,0,0,1.61.13,1.61.13-.91,2.15-1.93,4.53-2.89,6.67-.91-2.67-1.94-5.46-2.83-8.12,0,0,1.9-.1,1.9-.1-.46,1.96-.9,3.91-1.41,5.86l-.34,1.33c-1.54-1.14-3.14-2.31-4.66-3.48l1.16-.93c.81,2.1,1.61,4.33,2.37,6.46,0,0-1.37-1.01-1.37-1.01-1.76-1.3-3.51-2.6-5.21-3.99,1.97.98,3.88,2.04,5.79,3.1l-.77.65c-1.11-2.22-2.28-4.72-3.33-6.99,1.94,1.22,4.13,2.64,6.01,3.92,0,0-1.41.54-1.41.54.58-2.95,1.35-6.3,1.98-9.26,0,0,1.17,3.26,1.17,3.26.69,1.93,1.31,3.89,1.98,5.83l-1.79-.08c.68-1.46,1.4-2.91,2.09-4.36l1.05-2.2c.47,1.95,1,4.19,1.42,6.13,0,0-1.18-.34-1.18-.34,1.71-1.48,3.47-2.96,5.24-4.38-.54,1.95-1.12,3.92-1.75,5.84h0Z"/>
  <g class="cls-4">
    <g>
      <g>
        <path class="cls-1" d="M13.43,18.67c.08,0,.14.06.14.14v4.94h2c1.76,0,3.44.84,4.49,2.25l1.12,1.5v3.68H-7.11v-12.5H13.43M13.43,16.67H-9.11v16.5H23.19v-6.35l-1.52-2.03c-1.44-1.92-3.7-3.05-6.09-3.05v-2.94c0-1.18-.96-2.14-2.14-2.14h0Z"/>
        <g>
          <rect class="cls-2" x="9.18" y="29.98" width="9.62" height="4.28"/>
          <path class="cls-1" d="M13.99,29.84c.96,0,1.74.78,1.74,1.74s-.78,1.74-1.74,1.74-1.74-.78-1.74-1.74.78-1.74,1.74-1.74M13.99,27.84c-2.07,0-3.74,1.67-3.74,3.74s1.67,3.74,3.74,3.74,3.74-1.67,3.74-3.74-1.67-3.74-3.74-3.74h0Z"/>
        </g>
      </g>
      <g>
        <path class="cls-1" d="M51,18.67v12.5h-23.9v-12.36c0-.08.06-.14.14-.14h23.77M53,16.67h-25.77c-1.18,0-2.14.96-2.14,2.14v14.36h27.9v-16.5h0Z"/>
        <g>
          <rect class="cls-2" x="30.55" y="29.98" width="9.62" height="4.28"/>
          <path class="cls-1" d="M35.36,29.84c.96,0,1.74.78,1.74,1.74s-.78,1.74-1.74,1.74-1.74-.78-1.74-1.74.78-1.74,1.74-1.74M35.36,27.84c-2.07,0-3.74,1.67-3.74,3.74s1.67,3.74,3.74,3.74,3.74-1.67,3.74-3.74-1.67-3.74-3.74-3.74h0Z"/>
        </g>
      </g>
    </g>
  </g>
</svg>