<?xml version="1.0" encoding="UTF-8"?>
<svg id="icon" xmlns="http://www.w3.org/2000/svg" viewBox="0 0 48 48">
  <defs>
    <style>
      .cls-1 {
        fill: #848484;
      }

      .cls-2 {
        fill: #fff;
      }

      .cls-3 {
        fill: #114aa5;
      }
    </style>
  </defs>
  <circle class="cls-2" cx="24" cy="24" r="24"/>
  <path class="cls-1" d="M39.79,10.97c.68,0,1.24.56,1.24,1.24v8.2c0,.68-.56,1.24-1.24,1.24h-7.47l-.34.31-3.84,3.54v-3.85h-2.49c-.68,0-1.24-.56-1.24-1.24v-8.2c0-.68.56-1.24,1.24-1.24h14.14M39.79,9.8h-14.14c-1.33,0-2.41,1.08-2.41,2.41v8.2c0,1.33,1.08,2.41,2.41,2.41h1.33v5.34l5.8-5.34h7.01c1.33,0,2.41-1.08,2.41-2.41v-8.2c0-1.33-1.08-2.41-2.41-2.41h0Z"/>
  <path class="cls-1" d="M39.94,16.58l-1.65-2.51c-.09-.14-.26-.23-.43-.23h-2.23v-1.52c0-.22-.17-.39-.39-.39h-8.83c-.22,0-.39.17-.39.39v6.6c0,.22.17.39.39.39h1.32c0,.73.59,1.32,1.32,1.32s1.32-.59,1.32-1.32h5.14c0,.73.59,1.32,1.32,1.32s1.32-.59,1.32-1.32h1.48c.22,0,.39-.17.39-.39v-2.05c0-.1-.03-.2-.08-.28Z"/>
  <g>
    <path class="cls-3" d="M24.31,35.04c.33.22.91.44,1.47.44.81,0,1.19-.4,1.19-.91,0-.53-.32-.81-1.14-1.11-1.1-.4-1.62-1.01-1.62-1.74,0-.97.8-1.78,2.11-1.78.62,0,1.16.16,1.5.37l-.28.81c-.24-.14-.68-.37-1.26-.37-.64,0-1.01.39-1.01.85,0,.51.35.73,1.16,1.05,1.05.39,1.61.91,1.61,1.83,0,1.07-.83,1.85-2.29,1.85-.67,0-1.29-.18-1.72-.43l.28-.85Z"/>
    <path class="cls-3" d="M30.09,33.32c.03,1.5.97,2.12,2.1,2.12.8,0,1.29-.14,1.69-.32l.19.8c-.38.18-1.06.39-2.03.39-1.88,0-3.01-1.25-3.01-3.08s1.09-3.3,2.88-3.3c1.98,0,2.52,1.74,2.52,2.87,0,.23-.03.4-.05.52h-4.29ZM33.35,32.52c.01-.7-.29-1.79-1.54-1.79-1.12,0-1.62,1.02-1.71,1.79h3.25Z"/>
    <path class="cls-3" d="M40.17,35.95c-.29.15-.94.37-1.76.37-1.85,0-3.05-1.25-3.05-3.12s1.29-3.26,3.29-3.26c.64,0,1.24.16,1.54.32l-.25.86c-.27-.15-.68-.29-1.29-.29-1.4,0-2.16,1.05-2.16,2.31,0,1.42.91,2.29,2.14,2.29.62,0,1.04-.16,1.35-.3l.19.83Z"/>
  </g>
</svg>