<?xml version="1.0" encoding="UTF-8"?>
<svg xmlns="http://www.w3.org/2000/svg" viewBox="0 0 48 48">
  <defs>
    <style>
      .cls-1 {
        fill: #fff;
      }

      .cls-1, .cls-2 {
        stroke-width: 0px;
      }

      .cls-2 {
        fill: #ff8500;
      }
    </style>
  </defs>
  <g id="background">
    <g>
      <circle class="cls-1" cx="24" cy="24" r="23"/>
      <path class="cls-2" d="m24,2c12.13,0,22,9.87,22,22s-9.87,22-22,22S2,36.13,2,24,11.87,2,24,2m0-2C10.75,0,0,10.75,0,24s10.75,24,24,24,24-10.75,24-24S37.25,0,24,0h0Z"/>
    </g>
  </g>
  <g id="icon">
    <g>
      <path class="cls-2" d="m34.38,13.62v20.75H13.62V13.62h20.75m2-2H11.62v24.75h24.75V11.62h0Z"/>
      <path class="cls-2" d="m41,31.19h-4.62c-.55,0-1-.45-1-1s.45-1,1-1h4.62c.55,0,1,.45,1,1s-.45,1-1,1Z"/>
      <path class="cls-2" d="m11.62,31.19h-4.62c-.55,0-1-.45-1-1s.45-1,1-1h4.62c.55,0,1,.45,1,1s-.45,1-1,1Z"/>
      <path class="cls-2" d="m42,25h-5.62c-.55,0-1-.45-1-1s.45-1,1-1h5.62c.55,0,1,.45,1,1s-.45,1-1,1Z"/>
      <path class="cls-2" d="m11.62,25h-5.62c-.55,0-1-.45-1-1s.45-1,1-1h5.62c.55,0,1,.45,1,1s-.45,1-1,1Z"/>
      <path class="cls-2" d="m41,18.81h-4.62c-.55,0-1-.45-1-1s.45-1,1-1h4.62c.55,0,1,.45,1,1s-.45,1-1,1Z"/>
      <path class="cls-2" d="m11.62,18.81h-4.62c-.55,0-1-.45-1-1s.45-1,1-1h4.62c.55,0,1,.45,1,1s-.45,1-1,1Z"/>
      <path class="cls-2" d="m17.81,42c-.55,0-1-.45-1-1v-4.62c0-.55.45-1,1-1s1,.45,1,1v4.62c0,.55-.45,1-1,1Z"/>
      <path class="cls-2" d="m17.81,12.62c-.55,0-1-.45-1-1v-4.62c0-.55.45-1,1-1s1,.45,1,1v4.62c0,.55-.45,1-1,1Z"/>
      <path class="cls-2" d="m24,43c-.55,0-1-.45-1-1v-5.62c0-.55.45-1,1-1s1,.45,1,1v5.62c0,.55-.45,1-1,1Z"/>
      <path class="cls-2" d="m24,12.62c-.55,0-1-.45-1-1v-5.62c0-.55.45-1,1-1s1,.45,1,1v5.62c0,.55-.45,1-1,1Z"/>
      <path class="cls-2" d="m30.19,42c-.55,0-1-.45-1-1v-4.62c0-.55.45-1,1-1s1,.45,1,1v4.62c0,.55-.45,1-1,1Z"/>
      <path class="cls-2" d="m30.19,12.62c-.55,0-1-.45-1-1v-4.62c0-.55.45-1,1-1s1,.45,1,1v4.62c0,.55-.45,1-1,1Z"/>
    </g>
    <path class="cls-2" d="m21.31,29.79s-.06,0-.1,0c-.37-.03-.71-.22-.93-.52l-4.09-5.6c-.33-.45-.23-1.07.22-1.4.45-.33,1.07-.23,1.4.22l3.59,4.92,8.9-8.9c.39-.39,1.02-.39,1.41,0s.39,1.02,0,1.41l-9.49,9.49c-.24.24-.56.37-.9.37Z"/>
  </g>
</svg>