<?xml version="1.0" encoding="UTF-8"?>
<svg xmlns="http://www.w3.org/2000/svg" viewBox="0 0 48 48">
  <defs>
    <style>
      .cls-1 {
        fill: #848484;
      }

      .cls-2 {
        fill: #fff;
      }
    </style>
  </defs>
  <g id="background">
    <g>
      <path class="cls-2" d="M24,47c-12.68,0-23-10.32-23-23S11.32,1,24,1s23,10.32,23,23-10.32,23-23,23Z"/>
      <path class="cls-1" d="M24,2c12.13,0,22,9.87,22,22s-9.87,22-22,22S2,36.13,2,24,11.87,2,24,2M24,0C10.75,0,0,10.75,0,24s10.75,24,24,24,24-10.75,24-24S37.25,0,24,0h0Z"/>
    </g>
  </g>
  <g id="icon">
    <g>
      <path class="cls-1" d="M34.38,13.62v20.75H13.62V13.62h20.75M36.38,11.62H11.62v24.75h24.75V11.62h0Z"/>
      <path class="cls-1" d="M41,31.19h-4.62c-.55,0-1-.45-1-1s.45-1,1-1h4.62c.55,0,1,.45,1,1s-.45,1-1,1Z"/>
      <path class="cls-1" d="M11.62,31.19h-4.62c-.55,0-1-.45-1-1s.45-1,1-1h4.62c.55,0,1,.45,1,1s-.45,1-1,1Z"/>
      <path class="cls-1" d="M42,25h-5.62c-.55,0-1-.45-1-1s.45-1,1-1h5.62c.55,0,1,.45,1,1s-.45,1-1,1Z"/>
      <path class="cls-1" d="M11.62,25h-5.62c-.55,0-1-.45-1-1s.45-1,1-1h5.62c.55,0,1,.45,1,1s-.45,1-1,1Z"/>
      <path class="cls-1" d="M41,18.81h-4.62c-.55,0-1-.45-1-1s.45-1,1-1h4.62c.55,0,1,.45,1,1s-.45,1-1,1Z"/>
      <path class="cls-1" d="M11.62,18.81h-4.62c-.55,0-1-.45-1-1s.45-1,1-1h4.62c.55,0,1,.45,1,1s-.45,1-1,1Z"/>
      <path class="cls-1" d="M17.81,42c-.55,0-1-.45-1-1v-4.62c0-.55.45-1,1-1s1,.45,1,1v4.62c0,.55-.45,1-1,1Z"/>
      <path class="cls-1" d="M17.81,12.62c-.55,0-1-.45-1-1v-4.62c0-.55.45-1,1-1s1,.45,1,1v4.62c0,.55-.45,1-1,1Z"/>
      <path class="cls-1" d="M24,43c-.55,0-1-.45-1-1v-5.62c0-.55.45-1,1-1s1,.45,1,1v5.62c0,.55-.45,1-1,1Z"/>
      <path class="cls-1" d="M24,12.62c-.55,0-1-.45-1-1v-5.62c0-.55.45-1,1-1s1,.45,1,1v5.62c0,.55-.45,1-1,1Z"/>
      <path class="cls-1" d="M30.19,42c-.55,0-1-.45-1-1v-4.62c0-.55.45-1,1-1s1,.45,1,1v4.62c0,.55-.45,1-1,1Z"/>
      <path class="cls-1" d="M30.19,12.62c-.55,0-1-.45-1-1v-4.62c0-.55.45-1,1-1s1,.45,1,1v4.62c0,.55-.45,1-1,1Z"/>
    </g>
    <path class="cls-1" d="M24,18c3.31,0,6,2.69,6,6s-2.69,6-6,6-6-2.69-6-6,2.69-6,6-6M24,16c-4.42,0-8,3.58-8,8s3.58,8,8,8,8-3.58,8-8-3.58-8-8-8h0Z"/>
    <path class="cls-1" d="M24,25c-.55,0-1-.45-1-1v-3c0-.55.45-1,1-1s1,.45,1,1v3c0,.55-.45,1-1,1Z"/>
    <path class="cls-1" d="M26,27c-.26,0-.51-.1-.71-.29l-2-2c-.39-.39-.39-1.02,0-1.41s1.02-.39,1.41,0l2,2c.39.39.39,1.02,0,1.41-.2.2-.45.29-.71.29Z"/>
  </g>
</svg>