<?xml version="1.0" encoding="UTF-8"?>
<svg id="icon" xmlns="http://www.w3.org/2000/svg" viewBox="0 0 48 48">
  <defs>
    <style>
      .cls-1 {
        fill: #848484;
      }

      .cls-2 {
        fill: #fff;
      }
    </style>
  </defs>
  <g>
    <path class="cls-2" d="M24,47C11.32,47,1,36.68,1,24S11.32,1,24,1s23,10.32,23,23-10.32,23-23,23Z"/>
    <path class="cls-1" d="M24,2c12.13,0,22,9.87,22,22s-9.87,22-22,22S2,36.13,2,24,11.87,2,24,2M24,0C10.75,0,0,10.75,0,24s10.75,24,24,24,24-10.75,24-24S37.25,0,24,0h0Z"/>
  </g>
  <g>
    <path class="cls-1" d="M41.19,25H6.81c-.55,0-1-.45-1-1s.45-1,1-1h34.38c.55,0,1,.45,1,1s-.45,1-1,1Z"/>
    <path class="cls-1" d="M41.19,17.81H6.81c-.55,0-1-.45-1-1s.45-1,1-1h34.38c.55,0,1,.45,1,1s-.45,1-1,1Z"/>
    <path class="cls-1" d="M41.19,32.19H6.81c-.55,0-1-.45-1-1s.45-1,1-1h34.38c.55,0,1,.45,1,1s-.45,1-1,1Z"/>
  </g>
  <g>
    <g>
      <circle class="cls-2" cx="16.33" cy="16.81" r="3.51"/>
      <path class="cls-1" d="M16.33,21.32c-2.49,0-4.51-2.02-4.51-4.51s2.02-4.51,4.51-4.51,4.51,2.02,4.51,4.51-2.02,4.51-4.51,4.51ZM16.33,14.3c-1.38,0-2.51,1.13-2.51,2.51s1.13,2.51,2.51,2.51,2.51-1.13,2.51-2.51-1.13-2.51-2.51-2.51Z"/>
    </g>
    <g>
      <circle class="cls-2" cx="16.33" cy="31.19" r="3.51"/>
      <path class="cls-1" d="M16.33,35.7c-2.49,0-4.51-2.02-4.51-4.51s2.02-4.51,4.51-4.51,4.51,2.02,4.51,4.51-2.02,4.51-4.51,4.51ZM16.33,28.68c-1.38,0-2.51,1.13-2.51,2.51s1.13,2.51,2.51,2.51,2.51-1.13,2.51-2.51-1.13-2.51-2.51-2.51Z"/>
    </g>
  </g>
  <g>
    <circle class="cls-2" cx="31.67" cy="24" r="3.51"/>
    <path class="cls-1" d="M31.67,28.51c-2.49,0-4.51-2.02-4.51-4.51s2.02-4.51,4.51-4.51,4.51,2.02,4.51,4.51-2.02,4.51-4.51,4.51ZM31.67,21.49c-1.38,0-2.51,1.13-2.51,2.51s1.13,2.51,2.51,2.51,2.51-1.13,2.51-2.51-1.13-2.51-2.51-2.51Z"/>
  </g>
</svg>