<?xml version="1.0" encoding="UTF-8"?>
<svg id="icon" xmlns="http://www.w3.org/2000/svg" viewBox="0 0 48 48">
  <defs>
    <style>
      .cls-1 {
        fill: #e8e3e3;
      }

      .cls-2 {
        fill: none;
        stroke: #848484;
        stroke-linecap: round;
        stroke-miterlimit: 10;
        stroke-width: 1.17px;
      }

      .cls-3 {
        fill: #114aa5;
      }
    </style>
  </defs>
  <g>
    <circle class="cls-1" cx="24" cy="24" r="24"/>
    <g>
      <path class="cls-3" d="M19.18,34.7c.16,2.52,2.26,4.52,4.82,4.52s4.66-2,4.82-4.52h-9.64Z"/>
      <path class="cls-3" d="M34.62,30.37c-.62-.86-.95-1.89-.95-2.95v-5.96c0-4.74-3.39-8.82-7.86-9.7v-1.18c0-.99-.81-1.8-1.8-1.8s-1.8.81-1.8,1.8v1.17c-4.47.85-7.86,4.77-7.86,9.49v6.17c0,1.06-.33,2.09-.95,2.95l-2.45,3.39h26.15l-2.45-3.39Z"/>
    </g>
  </g>
  <g>
    <g>
      <path class="cls-2" d="M39.59,30.59c1.9-1.56,3.11-3.94,3.11-6.59s-1.21-5.03-3.11-6.59"/>
      <path class="cls-2" d="M37.69,28.81c1.48-1.08,2.44-2.83,2.44-4.81s-.96-3.72-2.44-4.81"/>
      <path class="cls-2" d="M35.75,21.01c1.07.57,1.8,1.69,1.8,2.99s-.73,2.42-1.8,2.99"/>
    </g>
    <g>
      <path class="cls-2" d="M8.41,30.59c-1.9-1.56-3.11-3.94-3.11-6.59s1.21-5.03,3.11-6.59"/>
      <path class="cls-2" d="M10.31,28.81c-1.48-1.08-2.44-2.83-2.44-4.81s.96-3.72,2.44-4.81"/>
      <path class="cls-2" d="M12.25,21.01c-1.07.57-1.8,1.69-1.8,2.99s.73,2.42,1.8,2.99"/>
    </g>
  </g>
</svg>