<?xml version="1.0" encoding="UTF-8"?>
<svg id="icon" xmlns="http://www.w3.org/2000/svg" viewBox="0 0 48 48">
  <defs>
    <style>
      .cls-1 {
        fill: #e8e3e3;
      }

      .cls-2 {
        fill: #114aa5;
      }
    </style>
  </defs>
  <circle class="cls-1" cx="24" cy="24" r="24"/>
  <path class="cls-2" d="M35.87,15.39H8.59c-.64,0-1.16.52-1.16,1.16v9.09c0,.64.52,1.16,1.16,1.16h13.41l-.6,4.35c-.11.77-.77,1.35-1.56,1.35h-1.82c-.59,0-1.06.48-1.06,1.06s.47,1.06,1.06,1.06h11.94c.59,0,1.06-.47,1.06-1.06s-.47-1.06-1.06-1.06h-1.82c-.78,0-1.45-.58-1.56-1.35l-.6-4.35h13.41c.64,0,1.16-.52,1.16-1.16v-9.09c0-.64-.52-1.16-1.16-1.16h-3.53Z"/>
  <rect class="cls-1" x="15.26" y="18.42" width="1.43" height="5.32" rx=".71" ry=".71"/>
  <rect class="cls-2" x="39.24" y="19.45" width="2.63" height="3.29" rx=".91" ry=".91"/>
  <path class="cls-2" d="M44.96,31.46c-.12,0-.25-.05-.35-.14-1.79-1.72-1.82-2.64-1.85-3.62,0-.14,0-.28-.02-.42-.06-.78.06-1.46.16-2.06.14-.85.25-1.53-.1-2.26-.31-.63-.89-1.14-1.73-1.52-.25-.11-.36-.41-.25-.66.11-.25.41-.36.66-.25,1.06.48,1.8,1.15,2.22,1.99.5,1.02.34,1.96.19,2.86-.09.57-.19,1.17-.14,1.82.01.16.02.32.02.47.03.83.05,1.49,1.55,2.93.2.19.21.51.01.71-.1.1-.23.15-.36.15Z"/>
</svg>