<?xml version="1.0" encoding="UTF-8"?>
<svg id="icon" xmlns="http://www.w3.org/2000/svg" viewBox="0 0 48 48">
  <defs>
    <style>
      .cls-1 {
        fill: #e8e3e3;
      }

      .cls-2 {
        fill: red;
      }

      .cls-3 {
        fill: #114aa5;
      }
    </style>
  </defs>
  <circle class="cls-1" cx="24" cy="24" r="24"/>
  <path class="cls-3" d="M11.03,30.99h5.14l10.19,8.09c.11.09.24.13.38.13.09,0,.18-.02.26-.06.21-.1.35-.32.35-.55V9.39c0-.24-.13-.45-.35-.55-.21-.1-.46-.07-.64.07l-10.19,8.09h-5.14c-.34,0-.61.28-.61.61v12.76c0,.34.28.61.61.61h0Z"/>
  <rect class="cls-2" x="0" y="23.01" width="47.98" height="2" transform="translate(-9.95 24) rotate(-45)"/>
</svg>