<?xml version="1.0" encoding="UTF-8"?>
<svg xmlns="http://www.w3.org/2000/svg" viewBox="0 0 48 48">
  <defs>
    <style>
      .cls-1 {
        fill: #848484;
      }

      .cls-2 {
        fill: #fff;
      }
    </style>
  </defs>
  <g id="background">
    <g>
      <path class="cls-2" d="M24,47c-12.68,0-23-10.32-23-23S11.32,1,24,1s23,10.32,23,23-10.32,23-23,23Z"/>
      <path class="cls-1" d="M24,2c12.13,0,22,9.87,22,22s-9.87,22-22,22S2,36.13,2,24,11.87,2,24,2M24,0C10.75,0,0,10.75,0,24s10.75,24,24,24,24-10.75,24-24S37.25,0,24,0h0Z"/>
    </g>
  </g>
  <g id="icon">
    <path class="cls-1" d="M24,12c4.67,0,8.47,3.8,8.47,8.47,0,1.48-.81,3.57-2.41,6.22-1.48,2.44-3.3,4.85-4.91,6.99-.41.54-.8,1.05-1.15,1.53-.36-.48-.75-1-1.17-1.55-1.61-2.14-3.44-4.56-4.89-6.96-1.6-2.65-2.41-4.74-2.41-6.22,0-4.67,3.8-8.47,8.47-8.47M24,10c-5.78,0-10.47,4.7-10.47,10.47,0,1.88.89,4.25,2.7,7.26,1.51,2.49,3.38,4.97,5.03,7.15.76,1.01,1.48,1.96,2.03,2.75.16.24.43.37.72.37s.55-.14.72-.37c.55-.79,1.27-1.74,2.03-2.75,1.65-2.18,3.51-4.66,5.03-7.15,1.82-3,2.7-5.38,2.7-7.26,0-5.78-4.7-10.47-10.47-10.47h0Z"/>
    <path class="cls-1" d="M24,16.68c1.74,0,3.16,1.42,3.16,3.16s-1.42,3.16-3.16,3.16-3.16-1.42-3.16-3.16,1.42-3.16,3.16-3.16M24,14.68c-2.85,0-5.16,2.31-5.16,5.16s2.31,5.16,5.16,5.16,5.16-2.31,5.16-5.16-2.31-5.16-5.16-5.16h0Z"/>
    <g>
      <path class="cls-1" d="M6.26,22c-.05,0-.11,0-.17-.01-.54-.09-.91-.61-.82-1.15,1.53-9.17,9.41-15.83,18.73-15.83,7.04,0,13.47,3.87,16.78,10.09.26.49.07,1.09-.41,1.35-.49.26-1.09.07-1.35-.41-2.96-5.57-8.71-9.03-15.01-9.03-8.34,0-15.38,5.96-16.75,14.17-.08.49-.5.83-.99.83Z"/>
      <polygon class="cls-1" points="35.61 15.9 41.74 21 43.1 13.14 35.61 15.9"/>
    </g>
    <g>
      <path class="cls-1" d="M24,43c-7.04,0-13.47-3.87-16.78-10.09-.26-.49-.07-1.09.41-1.35.49-.26,1.09-.08,1.35.41,2.96,5.57,8.71,9.03,15.01,9.03,8.34,0,15.38-5.96,16.75-14.17.09-.54.6-.92,1.15-.82.54.09.91.61.82,1.15-1.53,9.17-9.41,15.83-18.73,15.83Z"/>
      <polygon class="cls-1" points="4.9 34.86 6.26 27 12.39 32.1 4.9 34.86"/>
    </g>
  </g>
</svg>