<?xml version="1.0" encoding="UTF-8"?>
<svg xmlns="http://www.w3.org/2000/svg" viewBox="0 0 48 48">
  <defs>
    <style>
      .cls-1 {
        fill: #848484;
      }

      .cls-1, .cls-2 {
        stroke-width: 0px;
      }

      .cls-2 {
        fill: #fff;
      }
    </style>
  </defs>
  <g id="background">
    <g>
      <circle class="cls-2" cx="24" cy="24" r="23"/>
      <path class="cls-1" d="m24,2c12.13,0,22,9.87,22,22s-9.87,22-22,22S2,36.13,2,24,11.87,2,24,2m0-2C10.75,0,0,10.75,0,24s10.75,24,24,24,24-10.75,24-24S37.25,0,24,0h0Z"/>
    </g>
  </g>
  <g id="icon">
    <g id="Layer_29" data-name="Layer 29">
      <path class="cls-1" d="m16.63,11.03c2.08,0,4.07.77,5.62,2.17.48.43,1.1.67,1.74.67s1.26-.24,1.75-.67c1.55-1.39,3.54-2.16,5.62-2.16.1,0,.21,0,.31,0,4.48.16,8.12,4.07,8.12,8.71,0,2.31-.88,4.5-2.49,6.17l-12.08,12.53-.04.04h0c-.32.31-.75.49-1.19.49-.47,0-.91-.19-1.24-.53l-12.08-12.53c-1.61-1.66-2.49-3.85-2.49-6.17,0-4.63,3.64-8.54,8.12-8.7.11,0,.21,0,.32,0h0m0-2h0c-.13,0-.26,0-.39,0-5.54.2-10.05,5-10.05,10.7,0,2.82,1.09,5.53,3.05,7.56l12.08,12.53c.73.76,1.7,1.14,2.68,1.14s1.86-.35,2.58-1.04c.03-.03.07-.06.1-.1l12.08-12.53c1.96-2.03,3.06-4.74,3.05-7.56,0-5.7-4.51-10.5-10.05-10.7-.13,0-.26,0-.39,0-2.57,0-5.05.95-6.96,2.67-.12.1-.26.16-.41.16s-.29-.05-.41-.16c-1.91-1.72-4.39-2.67-6.96-2.67h0Z"/>
    </g>
    <path class="cls-1" d="m26.74,31.81l-4.3-11.89-3.69,5.08h-5.66c-.55,0-1-.45-1-1s.45-1,1-1h4.64l5.31-7.3,3.79,10.49,1.28-3.19h6.8c.55,0,1,.45,1,1s-.45,1-1,1h-5.45l-2.72,6.81Z"/>
  </g>
</svg>