<?xml version="1.0" encoding="UTF-8"?>
<svg id="icon" xmlns="http://www.w3.org/2000/svg" xmlns:xlink="http://www.w3.org/1999/xlink" viewBox="0 0 48 48">
  <defs>
    <style>
      .cls-1 {
        fill: #fff;
      }

      .cls-2 {
        fill: #df0031;
      }

      .cls-3 {
        fill: none;
      }

      .cls-4 {
        clip-path: url(#clippath);
      }
    </style>
    <clipPath id="clippath">
      <circle class="cls-3" cx="24" cy="24" r="24"/>
    </clipPath>
  </defs>
  <circle class="cls-2" cx="24" cy="24" r="24"/>
  <g class="cls-4">
    <g>
      <g>
        <path class="cls-1" d="M9.43,18.67c.08,0,.14.06.14.14v4.94h2c1.76,0,3.44.84,4.49,2.25l1.12,1.5v3.68H-11.11v-12.5H9.43M9.43,16.67H-13.11v16.5H19.19v-6.35l-1.52-2.03c-1.44-1.92-3.7-3.05-6.09-3.05v-2.94c0-1.18-.96-2.14-2.14-2.14h0Z"/>
        <g>
          <rect class="cls-2" x="5.18" y="29.98" width="9.62" height="4.28"/>
          <path class="cls-1" d="M9.99,29.84c.96,0,1.74.78,1.74,1.74s-.78,1.74-1.74,1.74-1.74-.78-1.74-1.74.78-1.74,1.74-1.74M9.99,27.84c-2.07,0-3.74,1.67-3.74,3.74s1.67,3.74,3.74,3.74,3.74-1.67,3.74-3.74-1.67-3.74-3.74-3.74h0Z"/>
        </g>
      </g>
      <g>
        <path class="cls-1" d="M55,21v10.17h-23.9v-4.5c0-.55.45-1,1-1h7.41l.42-1.45.93-3.23h14.15M57,19h-16.8c-.66,0-1.2.54-1.2,1.2l-1,3.48h-5.9c-1.66,0-3,1.34-3,3v6.5h27.9v-14.17h0Z"/>
        <g>
          <rect class="cls-2" x="33.55" y="29.98" width="9.62" height="4.28"/>
          <path class="cls-1" d="M38.36,29.84c.96,0,1.74.78,1.74,1.74s-.78,1.74-1.74,1.74-1.74-.78-1.74-1.74.78-1.74,1.74-1.74M38.36,27.84c-2.07,0-3.74,1.67-3.74,3.74s1.67,3.74,3.74,3.74,3.74-1.67,3.74-3.74-1.67-3.74-3.74-3.74h0Z"/>
        </g>
      </g>
    </g>
  </g>
  <path class="cls-1" d="M22.79,26.26l-1.12-9.27c-.31-1.57.51-2.49,1.92-2.49h.72c1.49,0,2.35.92,2,2.49l-1.12,9.27c-.17.86-.43,1.29-1.03,1.29h-.4c-.55,0-.77-.43-.97-1.29ZM21.85,31.61v-.4c0-1.23.63-1.89,1.89-1.89h.49c1.29,0,1.89.66,1.89,1.89v.4c0,1.23-.6,1.89-1.89,1.89h-.49c-1.26,0-1.89-.66-1.89-1.89Z"/>
</svg>