<?xml version="1.0" encoding="UTF-8"?>
<svg id="background" xmlns="http://www.w3.org/2000/svg" viewBox="0 0 48 48">
  <defs>
    <style>
      .cls-1 {
        fill: #848484;
      }

      .cls-1, .cls-2 {
        stroke-width: 0px;
      }

      .cls-2 {
        fill: #fff;
      }
    </style>
  </defs>
  <g>
    <circle class="cls-2" cx="24" cy="24" r="23"/>
    <path class="cls-1" d="m24,2c12.13,0,22,9.87,22,22s-9.87,22-22,22S2,36.13,2,24,11.87,2,24,2m0-2C10.75,0,0,10.75,0,24s10.75,24,24,24,24-10.75,24-24S37.25,0,24,0h0Z"/>
  </g>
  <g>
    <g>
      <path class="cls-2" d="m13.04,13.11c-2.81,2.81-4.54,6.68-4.54,10.96,0,8.56,6.94,15.51,15.51,15.51s15.51-6.94,15.51-15.51c0-4.28-1.74-8.16-4.54-10.96"/>
      <path class="cls-1" d="m24,40.58c-9.1,0-16.51-7.4-16.51-16.5,0-4.41,1.72-8.55,4.83-11.67.39-.39,1.02-.39,1.41,0s.39,1.02,0,1.41c-2.74,2.74-4.25,6.38-4.25,10.26,0,8,6.51,14.5,14.51,14.5s14.51-6.51,14.51-14.5c0-3.87-1.51-7.52-4.25-10.26-.39-.39-.39-1.02,0-1.41s1.02-.39,1.41,0c3.12,3.12,4.83,7.26,4.83,11.67,0,9.1-7.4,16.5-16.51,16.5Z"/>
    </g>
    <g>
      <path class="cls-2" d="m24,42.08c-9.93,0-18.01-8.08-18.01-18,0-4.81,1.87-9.33,5.27-12.73.47-.47,1.1-.73,1.77-.73s1.29.26,1.77.73.73,1.1.73,1.77-.26,1.29-.73,1.77c-2.46,2.46-3.81,5.72-3.81,9.2,0,7.17,5.83,13,13.01,13s13.01-5.83,13.01-13c0-3.47-1.35-6.74-3.81-9.2-.47-.47-.73-1.1-.73-1.77s.26-1.29.73-1.77,1.1-.73,1.77-.73,1.29.26,1.77.73c3.4,3.4,5.27,7.92,5.27,12.73,0,9.93-8.08,18-18.01,18Z"/>
      <path class="cls-1" d="m34.96,11.61c.4,0,.78.16,1.06.44,3.21,3.21,4.98,7.48,4.98,12.02,0,9.38-7.63,17-17.01,17S6.99,33.45,6.99,24.08c0-4.54,1.77-8.81,4.98-12.02.28-.28.66-.44,1.06-.44s.78.16,1.06.44c.28.28.44.66.44,1.06s-.16.78-.44,1.06c-2.65,2.65-4.1,6.16-4.1,9.9,0,7.72,6.28,14,14.01,14s14.01-6.28,14.01-14c0-3.74-1.46-7.26-4.1-9.9-.28-.28-.44-.66-.44-1.06s.16-.78.44-1.06c.28-.28.66-.44,1.06-.44m0-2c-.9,0-1.79.34-2.47,1.03-1.37,1.37-1.37,3.58,0,4.95,2.27,2.27,3.52,5.28,3.52,8.49,0,6.62-5.39,12-12.01,12s-12.01-5.39-12.01-12c0-3.21,1.25-6.22,3.52-8.49,1.37-1.37,1.37-3.58,0-4.95-.68-.68-1.58-1.03-2.47-1.03s-1.79.34-2.47,1.03c-3.59,3.59-5.57,8.36-5.57,13.44,0,10.48,8.53,19,19.01,19s19.01-8.53,19.01-19c0-5.08-1.98-9.85-5.57-13.44-.68-.68-1.58-1.03-2.47-1.03h0Z"/>
    </g>
  </g>
  <g>
    <path class="cls-2" d="m24,22.17c-1.65,0-3-1.35-3-3v-10.37c0-1.65,1.35-3,3-3s3,1.35,3,3v10.37c0,1.65-1.35,3-3,3Z"/>
    <path class="cls-1" d="m24,6.8c1.1,0,2,.9,2,2v10.37c0,1.1-.9,2-2,2s-2-.9-2-2v-10.37c0-1.1.9-2,2-2m0-2c-2.21,0-4,1.79-4,4v10.37c0,2.21,1.79,4,4,4s4-1.79,4-4v-10.37c0-2.21-1.79-4-4-4h0Z"/>
  </g>
</svg>