<?xml version="1.0" encoding="UTF-8"?>
<svg xmlns="http://www.w3.org/2000/svg" xmlns:xlink="http://www.w3.org/1999/xlink" viewBox="0 0 48 48">
  <defs>
    <style>
      .cls-1 {
        fill: #848484;
      }

      .cls-1, .cls-2, .cls-3 {
        stroke-width: 0px;
      }

      .cls-2 {
        fill: none;
      }

      .cls-3 {
        fill: #fff;
      }

      .cls-4 {
        clip-path: url(#clippath);
      }
    </style>
    <clipPath id="clippath">
      <circle class="cls-2" cx="24" cy="24" r="24"/>
    </clipPath>
  </defs>
  <g id="background">
    <circle class="cls-1" cx="24" cy="24" r="24"/>
  </g>
  <g id="icon">
    <g class="cls-4">
      <g>
        <path class="cls-3" d="m36,49c-.55,0-1-.45-1-1V1c0-.55.45-1,1-1s1,.45,1,1v47c0,.55-.45,1-1,1Z"/>
        <path class="cls-3" d="m12,51c-.55,0-1-.45-1-1V-1c0-.55.45-1,1-1s1,.45,1,1v51c0,.55-.45,1-1,1Z"/>
      </g>
    </g>
    <path class="cls-1" d="m33,10c1,0,4.96,2.19,4.96,2.19l.04,9.81-2.86,3.06-3.14-.06,1-15Z"/>
    <path class="cls-3" d="m30.07,9.92c.17,0,.31.03.45.09l7.59,3.31c.84.37,1.24,2.08.75,3.22l-.3.7c-1.53-1.23-3.26-2.26-5.14-3.08-2.55-1.11-4.83-1.59-6.07-1.79l.31-.7c.41-.94,1.52-1.73,2.42-1.73m-6.78,11.75l1.17.51,8.88,3.86,1.17.51-5.41,12.44c-.32.73-1.03,1.2-1.83,1.2-.27,0-.53-.05-.77-.16l-7.59-3.31c-.48-.21-.85-.6-1.04-1.09-.19-.5-.18-1.04.03-1.52l5.41-12.44m6.78-13.75c-1.73,0-3.54,1.3-4.25,2.93l-9.77,22.45c-.88,2.01.04,4.37,2.05,5.24l7.59,3.31c.51.22,1.05.33,1.57.33,1.54,0,3.01-.9,3.66-2.4l9.77-22.45c.88-2.03.23-4.97-1.78-5.85l-7.59-3.31c-.4-.17-.82-.25-1.24-.25h0Zm4.06,16.29l-8.88-3.86.95-6.12s2.93.24,6.41,1.76c1.73.75,3.61,1.84,5.34,3.36-1.76,2.24-3.83,4.87-3.83,4.87h0Z"/>
  </g>
</svg>