<?xml version="1.0" encoding="UTF-8"?>
<svg id="icon" xmlns="http://www.w3.org/2000/svg" viewBox="0 0 48 48">
  <defs>
    <style>
      .cls-1 {
        fill: #848484;
      }

      .cls-2 {
        fill: #fff;
      }
    </style>
  </defs>
  <g>
    <path class="cls-2" d="M24,47c-12.68,0-23-10.32-23-23S11.32,1,24,1s23,10.32,23,23-10.32,23-23,23Z"/>
    <path class="cls-1" d="M24,2c12.13,0,22,9.87,22,22s-9.87,22-22,22S2,36.13,2,24,11.87,2,24,2M24,0C10.75,0,0,10.75,0,24s10.75,24,24,24,24-10.75,24-24S37.25,0,24,0h0Z"/>
  </g>
  <path class="cls-1" d="M31.65,9l4.35,4.35v24.01c0,.9-.73,1.63-1.63,1.63H13.63c-.9,0-1.63-.73-1.63-1.63V10.63c0-.9.73-1.63,1.63-1.63h18.01M32.48,7H13.63c-2.01,0-3.63,1.63-3.63,3.63v26.73c0,2.01,1.63,3.63,3.63,3.63h20.73c2.01,0,3.63-1.63,3.63-3.63V12.52c-2.16-2.16-3.37-3.37-5.52-5.52h0Z"/>
  <polygon class="cls-1" points="36.49 14.46 30.18 14.46 30.18 8.45 32.18 8.45 32.18 12.46 36.49 12.46 36.49 14.46"/>
  <g>
    <path class="cls-1" d="M31.63,20.22h-15.26c-.55,0-1-.45-1-1s.45-1,1-1h15.26c.55,0,1,.45,1,1s-.45,1-1,1Z"/>
    <path class="cls-1" d="M31.63,25h-15.26c-.55,0-1-.45-1-1s.45-1,1-1h15.26c.55,0,1,.45,1,1s-.45,1-1,1Z"/>
    <path class="cls-1" d="M31.63,29.78h-15.26c-.55,0-1-.45-1-1s.45-1,1-1h15.26c.55,0,1,.45,1,1s-.45,1-1,1Z"/>
    <path class="cls-1" d="M31.63,34.56h-15.26c-.55,0-1-.45-1-1s.45-1,1-1h15.26c.55,0,1,.45,1,1s-.45,1-1,1Z"/>
  </g>
</svg>