<?xml version="1.0" encoding="UTF-8"?>
<svg id="icon" xmlns="http://www.w3.org/2000/svg" viewBox="0 0 48 48">
  <defs>
    <style>
      .cls-1 {
        fill: #848484;
      }

      .cls-2 {
        fill: #fff;
      }

      .cls-3 {
        fill: #114aa5;
      }
    </style>
  </defs>
  <circle class="cls-2" cx="24" cy="24" r="24"/>
  <g>
    <path class="cls-3" d="M31.74,36.32v-4.33c0-.81-.36-1.32-1.18-1.32-.66,0-1.36.48-1.69.98v4.68h-.99v-4.33c0-.81-.34-1.32-1.18-1.32-.65,0-1.33.48-1.68.99v4.66h-.99v-6.38h.99v.92c.26-.41,1.12-1.08,2.06-1.08s1.53.53,1.72,1.19c.36-.58,1.22-1.19,2.14-1.19,1.16,0,1.78.65,1.78,1.93v4.61h-.99Z"/>
    <path class="cls-3" d="M33.75,28.19c0-.37.3-.66.66-.66s.67.29.67.66-.3.67-.67.67-.66-.3-.66-.67ZM33.92,36.32v-6.38h.99v6.38h-.99Z"/>
    <path class="cls-3" d="M40.41,36.32v-4.18c0-1.12-.57-1.48-1.43-1.48-.78,0-1.52.48-1.89.99v4.66h-.99v-6.38h.99v.92c.45-.53,1.32-1.08,2.27-1.08,1.33,0,2.04.67,2.04,2.06v4.48h-.99Z"/>
  </g>
  <g>
    <path class="cls-1" d="M39.79,10.97c.68,0,1.24.56,1.24,1.24v8.2c0,.68-.56,1.24-1.24,1.24h-7.47l-.34.31-3.84,3.54v-3.85h-2.49c-.68,0-1.24-.56-1.24-1.24v-8.2c0-.68.56-1.24,1.24-1.24h14.14M39.79,9.8h-14.14c-1.33,0-2.41,1.08-2.41,2.41v8.2c0,1.33,1.08,2.41,2.41,2.41h1.33v5.34l5.8-5.34h7.01c1.33,0,2.41-1.08,2.41-2.41v-8.2c0-1.33-1.08-2.41-2.41-2.41h0Z"/>
    <g>
      <path class="cls-1" d="M38.46,15.43h-11.49c-.32,0-.58-.26-.58-.58s.26-.58.58-.58h11.49c.32,0,.58.26.58.58s-.26.58-.58.58Z"/>
      <path class="cls-1" d="M38.46,18.36h-11.49c-.32,0-.58-.26-.58-.58s.26-.58.58-.58h11.49c.32,0,.58.26.58.58s-.26.58-.58.58Z"/>
    </g>
  </g>
</svg>