<?xml version="1.0" encoding="UTF-8"?>
<svg xmlns="http://www.w3.org/2000/svg" viewBox="0 0 48 48">
  <defs>
    <style>
      .cls-1 {
        fill: #ff8500;
      }

      .cls-2 {
        fill: #fff;
      }
    </style>
  </defs>
  <g id="background">
    <g>
      <path class="cls-2" d="M24,47c-12.68,0-23-10.32-23-23S11.32,1,24,1s23,10.32,23,23-10.32,23-23,23Z"/>
      <path class="cls-1" d="M24,2c12.13,0,22,9.87,22,22s-9.87,22-22,22S2,36.13,2,24,11.87,2,24,2M24,0C10.75,0,0,10.75,0,24s10.75,24,24,24,24-10.75,24-24S37.25,0,24,0h0Z"/>
    </g>
  </g>
  <g id="icon">
    <path class="cls-1" d="M34,41c-.55,0-1-.45-1-1V8c0-.55.45-1,1-1s1,.45,1,1v32c0,.55-.45,1-1,1Z"/>
    <g>
      <path class="cls-1" d="M17.38,26H7c-1.1,0-2-.9-2-2s.9-2,2-2h10.38c1.1,0,2,.9,2,2s-.9,2-2,2Z"/>
      <polygon class="cls-1" points="15.01 15.92 29 24 15.01 32.08 15.01 15.92"/>
    </g>
  </g>
</svg>