<?xml version="1.0" encoding="UTF-8"?>
<svg xmlns="http://www.w3.org/2000/svg" viewBox="0 0 48 48">
  <defs>
    <style>
      .cls-1 {
        fill: #fff;
      }

      .cls-1, .cls-2 {
        stroke-width: 0px;
      }

      .cls-2 {
        fill: #ff8500;
      }
    </style>
  </defs>
  <g id="background">
    <g>
      <circle class="cls-1" cx="24" cy="24" r="23"/>
      <path class="cls-2" d="m24,2c12.13,0,22,9.87,22,22s-9.87,22-22,22S2,36.13,2,24,11.87,2,24,2m0-2C10.75,0,0,10.75,0,24s10.75,24,24,24,24-10.75,24-24S37.25,0,24,0h0Z"/>
    </g>
  </g>
  <g id="icon">
    <g>
      <path class="cls-2" d="m31.38,26h-10.38c-1.1,0-2-.9-2-2s.9-2,2-2h10.38c1.1,0,2,.9,2,2s-.9,2-2,2Z"/>
      <polygon class="cls-2" points="29.01 15.92 43 24 29.01 32.08 29.01 15.92"/>
    </g>
    <path class="cls-2" d="m14,41c-.55,0-1-.45-1-1V8c0-.55.45-1,1-1s1,.45,1,1v32c0,.55-.45,1-1,1Z"/>
  </g>
</svg>