<?xml version="1.0" encoding="UTF-8"?>
<svg xmlns="http://www.w3.org/2000/svg" xmlns:xlink="http://www.w3.org/1999/xlink" viewBox="0 0 48 48">
  <defs>
    <style>
      .cls-1 {
        fill: #848484;
      }

      .cls-1, .cls-2, .cls-3 {
        stroke-width: 0px;
      }

      .cls-2 {
        fill: none;
      }

      .cls-3 {
        fill: #fff;
      }

      .cls-4 {
        clip-path: url(#clippath);
      }
    </style>
    <clipPath id="clippath">
      <circle class="cls-2" cx="24" cy="24" r="24"/>
    </clipPath>
  </defs>
  <g id="background">
    <circle class="cls-1" cx="24" cy="24" r="24"/>
  </g>
  <g id="icon">
    <g>
      <path class="cls-3" d="m24.69,41h-7.19c-.55,0-1-.45-1-1s.45-1,1-1h7.19c.55,0,1,.45,1,1s-.45,1-1,1Z"/>
      <polygon class="cls-3" points="23.51 35.96 30.5 40 23.51 44.04 23.51 35.96"/>
    </g>
    <path class="cls-3" d="m31.5,13.12c.17-1.6.37-3.2.6-4.79l.68.38c-1.5,1.63-3.07,3.24-4.61,4.84-.49-1.62-1.02-3.29-1.5-4.91,0,0,1.61.13,1.61.13-.91,2.15-1.93,4.53-2.89,6.67-.91-2.67-1.94-5.46-2.83-8.12,0,0,1.9-.1,1.9-.1-.46,1.96-.9,3.91-1.41,5.86l-.34,1.33c-1.54-1.14-3.14-2.31-4.66-3.48l1.16-.93c.81,2.1,1.61,4.33,2.37,6.46,0,0-1.37-1.01-1.37-1.01-1.76-1.3-3.51-2.6-5.21-3.99,1.97.98,3.88,2.04,5.79,3.1l-.77.65c-1.11-2.22-2.28-4.72-3.33-6.99,1.94,1.22,4.13,2.64,6.01,3.92,0,0-1.41.54-1.41.54.58-2.95,1.35-6.3,1.98-9.26,0,0,1.17,3.26,1.17,3.26.69,1.93,1.31,3.89,1.98,5.83l-1.79-.08c.68-1.46,1.4-2.91,2.09-4.36l1.05-2.2c.47,1.95,1,4.19,1.42,6.13,0,0-1.18-.34-1.18-.34,1.71-1.48,3.47-2.96,5.24-4.38-.54,1.95-1.12,3.92-1.75,5.84h0Z"/>
    <path class="cls-3" d="m31.37,20.53c-.97,0-1.77-.8-1.77-1.77s.8-1.77,1.77-1.77,1.77.8,1.77,1.77-.8,1.77-1.77,1.77Zm3.27,2.92l2.3,11.49c.09.53-.27,1.06-.88,1.06h-.09c-.44,0-.8-.27-.88-.71l-1.41-6.36-1.86,1.77v4.42c0,.44-.35.88-.88.88s-.88-.44-.88-.88v-4.95c0-.53.18-.97.53-1.24l1.33-1.24-.53-2.65c-.97,1.06-2.3,1.86-3.89,2.12-.53.09-.97-.35-.97-.88,0-.44.35-.8.8-.88,1.33-.27,2.47-.97,3-2.03l.88-1.41c.53-.8,1.5-1.15,2.39-.71l3.36,1.24c.62.35,1.06.97,1.06,1.68v2.12c0,.53-.35.88-.88.88s-.88-.35-.88-.88v-2.12l-1.59-.71Z"/>
    <g class="cls-4">
      <g>
        <path class="cls-3" d="m13.43,18.67c.08,0,.14.06.14.14v4.94h2c1.76,0,3.44.84,4.49,2.25l1.12,1.5v3.68H-7.11v-12.5H13.43m0-2H-9.11v16.5H23.19v-6.35l-1.52-2.03c-1.44-1.92-3.7-3.05-6.09-3.05v-2.94c0-1.18-.96-2.14-2.14-2.14h0Z"/>
        <g>
          <rect class="cls-1" x="9.18" y="29.98" width="9.62" height="4.28"/>
          <path class="cls-3" d="m13.99,29.84c.96,0,1.74.78,1.74,1.74s-.78,1.74-1.74,1.74-1.74-.78-1.74-1.74.78-1.74,1.74-1.74m0-2c-2.07,0-3.74,1.67-3.74,3.74s1.67,3.74,3.74,3.74,3.74-1.67,3.74-3.74-1.67-3.74-3.74-3.74h0Z"/>
        </g>
      </g>
    </g>
  </g>
</svg>