<?xml version="1.0" encoding="UTF-8"?>
<svg xmlns="http://www.w3.org/2000/svg" viewBox="0 0 48 48">
  <defs>
    <style>
      .cls-1 {
        fill: #df0031;
      }

      .cls-1, .cls-2 {
        stroke-width: 0px;
      }

      .cls-2 {
        fill: #fff;
      }
    </style>
  </defs>
  <g id="background">
    <circle class="cls-1" cx="24" cy="24" r="24"/>
  </g>
  <g id="icon">
    <path class="cls-2" d="m31.77,7c.68,0,1.23.55,1.23,1.23v31.53c0,.68-.55,1.23-1.23,1.23h-15.53c-.68,0-1.23-.55-1.23-1.23V8.23c0-.68.55-1.23,1.23-1.23h15.53m0-2h-15.53c-1.79,0-3.23,1.45-3.23,3.23v31.53c0,1.79,1.45,3.23,3.23,3.23h15.53c1.79,0,3.23-1.45,3.23-3.23V8.23c0-1.79-1.45-3.23-3.23-3.23h0Z"/>
    <circle class="cls-2" cx="24" cy="36" r="2"/>
    <path class="cls-2" d="m27,12h-6c-.55,0-1-.45-1-1s.45-1,1-1h6c.55,0,1,.45,1,1s-.45,1-1,1Z"/>
  </g>
</svg>