<?xml version="1.0" encoding="UTF-8"?>
<svg id="background" xmlns="http://www.w3.org/2000/svg" viewBox="0 0 48 48">
  <defs>
    <style>
      .cls-1 {
        fill: #ff8500;
      }

      .cls-2 {
        fill: #fff;
      }
    </style>
  </defs>
  <circle class="cls-1" cx="24" cy="24" r="24"/>
  <g>
    <path class="cls-2" d="M32.66,16.7h-.91v-5.01c0-4.37-3.56-7.93-7.93-7.93s-7.93,3.56-7.93,7.93v5.01h-.54c-1.84,0-3.34,1.5-3.34,3.34v14.87c0,1.84,1.5,3.34,3.34,3.34h17.31c1.84,0,3.34-1.5,3.34-3.34v-14.87c0-1.84-1.5-3.34-3.34-3.34ZM17.88,11.69c0-3.27,2.66-5.93,5.93-5.93s5.93,2.66,5.93,5.93v5.01h-11.86v-5.01ZM33.99,34.91c0,.74-.6,1.34-1.34,1.34H15.35c-.74,0-1.34-.6-1.34-1.34v-14.87c0-.74.6-1.34,1.34-1.34h17.31c.74,0,1.34.6,1.34,1.34v14.87Z"/>
    <path class="cls-2" d="M24.53,33.07h-1.07c-1.14,0-2.07-.93-2.07-2.07v-2.48c-.69-.69-1.09-1.64-1.09-2.62,0-1.15.55-2.25,1.47-2.95.94-.7,2.13-.92,3.27-.59,1.22.35,2.18,1.32,2.51,2.53h0c.36,1.33-.01,2.71-.96,3.64v2.47c0,1.14-.93,2.07-2.07,2.07ZM23.99,24.21c-.37,0-.71.12-1.01.34-.43.33-.68.82-.68,1.35s.26,1.04.69,1.37l.4.3v3.43l1.14.07.07-3.5.41-.3c.45-.33.86-1,.62-1.85-.15-.53-.59-.98-1.13-1.13-.17-.05-.34-.07-.51-.07Z"/>
  </g>
</svg>