<?xml version="1.0" encoding="UTF-8"?>
<svg id="icon" xmlns="http://www.w3.org/2000/svg" viewBox="0 0 48 48">
  <defs>
    <style>
      .cls-1 {
        fill: #848484;
      }

      .cls-2 {
        fill: #fff;
      }
    </style>
  </defs>
  <g>
    <path class="cls-2" d="M24,47.07C11.32,47.07,1,36.76,1,24.07S11.32,1.07,24,1.07s23,10.32,23,23-10.32,23-23,23Z"/>
    <path class="cls-1" d="M24,2.07c12.13,0,22,9.87,22,22s-9.87,22-22,22S2,36.2,2,24.07,11.87,2.07,24,2.07M24,.07C10.75.07,0,10.82,0,24.07s10.75,24,24,24,24-10.75,24-24S37.25.07,24,.07h0Z"/>
  </g>
  <path class="cls-1" d="M34.37,9.07c.9,0,1.63.73,1.63,1.63v26.73c0,.9-.73,1.63-1.63,1.63H13.63c-.9,0-1.63-.73-1.63-1.63V10.71c0-.9.73-1.63,1.63-1.63h20.73M34.37,7.07H13.63c-2.01,0-3.63,1.63-3.63,3.63v26.73c0,2.01,1.63,3.63,3.63,3.63h20.73c2.01,0,3.63-1.63,3.63-3.63V10.71c0-2.01-1.63-3.63-3.63-3.63h0Z"/>
  <path class="cls-1" d="M36,33.03H12c-.55,0-1-.45-1-1s.45-1,1-1h24c.55,0,1,.45,1,1s-.45,1-1,1Z"/>
  <path class="cls-1" d="M36,25.07H12c-.55,0-1-.45-1-1s.45-1,1-1h24c.55,0,1,.45,1,1s-.45,1-1,1Z"/>
  <path class="cls-1" d="M36,17.12H12c-.55,0-1-.45-1-1s.45-1,1-1h24c.55,0,1,.45,1,1s-.45,1-1,1Z"/>
  <g>
    <path class="cls-1" d="M31.22,10.68c-.83,0-1.5.67-1.5,1.5s.67,1.5,1.5,1.5,1.5-.67,1.5-1.5-.67-1.5-1.5-1.5h0Z"/>
    <path class="cls-1" d="M25.15,13.18h-10.68c-.55,0-1-.45-1-1s.45-1,1-1h10.68c.55,0,1,.45,1,1s-.45,1-1,1Z"/>
  </g>
  <g>
    <path class="cls-1" d="M31.22,18.59c-.83,0-1.5.67-1.5,1.5s.67,1.5,1.5,1.5,1.5-.67,1.5-1.5-.67-1.5-1.5-1.5h0Z"/>
    <path class="cls-1" d="M25.15,21.09h-10.68c-.55,0-1-.45-1-1s.45-1,1-1h10.68c.55,0,1,.45,1,1s-.45,1-1,1Z"/>
  </g>
  <g>
    <path class="cls-1" d="M31.22,26.51c-.83,0-1.5.67-1.5,1.5s.67,1.5,1.5,1.5,1.5-.67,1.5-1.5-.67-1.5-1.5-1.5h0Z"/>
    <path class="cls-1" d="M25.15,29.01h-10.68c-.55,0-1-.45-1-1s.45-1,1-1h10.68c.55,0,1,.45,1,1s-.45,1-1,1Z"/>
  </g>
  <g>
    <path class="cls-1" d="M31.22,34.42c-.83,0-1.5.67-1.5,1.5s.67,1.5,1.5,1.5,1.5-.67,1.5-1.5-.67-1.5-1.5-1.5h0Z"/>
    <path class="cls-1" d="M25.15,36.92h-10.68c-.55,0-1-.45-1-1s.45-1,1-1h10.68c.55,0,1,.45,1,1s-.45,1-1,1Z"/>
  </g>
</svg>