<?xml version="1.0" encoding="UTF-8"?>
<svg xmlns="http://www.w3.org/2000/svg" viewBox="0 0 48 48">
  <defs>
    <style>
      .cls-1 {
        fill: #df0031;
      }

      .cls-1, .cls-2 {
        stroke-width: 0px;
      }

      .cls-2 {
        fill: #fff;
      }
    </style>
  </defs>
  <g id="background">
    <circle class="cls-1" cx="24" cy="24" r="24"/>
  </g>
  <g id="icon">
    <path class="cls-2" d="m32,26v3H7v-3h25m2-2H5v7h29v-7h0Z"/>
    <rect class="cls-2" x="36" y="24" width="7" height="7"/>
    <path class="cls-2" d="m40.73,22.35h0c-.55,0-1-.45-.99-1.01v-.25c.01-1.85.02-3.31-.78-4.48-.83-1.19-2.32-1.82-4.1-1.81l-1.25.02.26-1.23c.29-1.37.34-1.94-.21-2.91-.6-1.06-1.38-1.54-2.77-1.69-.55-.06-.94-.56-.88-1.11.06-.55.55-.94,1.11-.88,2,.23,3.36,1.09,4.28,2.69.67,1.19.77,2.13.63,3.17,1.95.24,3.58,1.16,4.58,2.61,1.17,1.68,1.15,3.6,1.14,5.63v.25c0,.55-.45.99-1,.99Z"/>
    <path class="cls-2" d="m35.89,22.41c-.54,0-.99-.43-1-.98-.03-1.33-.13-1.66-.62-1.93-.28-.15-1.26-.17-1.9-.18-1.2-.02-2.44-.04-3.29-.56-1.4-.86-2.23-2.15-2.35-3.61-1.77-.45-3.41-1.75-3.46-3.65-.03-1.32.38-2.5,1.17-3.31.75-.77,1.79-1.17,3.02-1.18h0c.55,0,1,.45,1,1,0,.55-.44,1-1,1-.69,0-1.23.19-1.59.57-.41.42-.63,1.09-.61,1.87.03,1.12,1.54,1.78,2.56,1.87l1.02.09-.12,1.02c-.16,1.37.68,2.19,1.4,2.63.38.24,1.48.25,2.28.27,1.09.02,2.13.03,2.84.43,1.59.89,1.62,2.41,1.65,3.64.01.55-.43,1.01-.98,1.02h-.02Z"/>
  </g>
</svg>