<?xml version="1.0" encoding="UTF-8"?>
<svg id="icon" xmlns="http://www.w3.org/2000/svg" viewBox="0 0 48 48">
  <defs>
    <style>
      .cls-1 {
        fill: #848484;
      }

      .cls-2 {
        fill: #fff;
      }

      .cls-3 {
        fill: #114aa5;
      }
    </style>
  </defs>
  <circle class="cls-2" cx="24" cy="24" r="24"/>
  <g>
    <rect class="cls-3" x="17.62" y="8.78" width="12.76" height="21.93" rx="6.38" ry="6.38"/>
    <path class="cls-3" d="M24,34.5c-6.07,0-11.01-4.94-11.01-11.01,0-.83.67-1.5,1.5-1.5s1.5.67,1.5,1.5c0,4.42,3.59,8.01,8.01,8.01s8.01-3.59,8.01-8.01c0-.83.67-1.5,1.5-1.5s1.5.67,1.5,1.5c0,6.07-4.94,11.01-11.01,11.01Z"/>
    <path class="cls-3" d="M24,40.72c-.83,0-1.5-.67-1.5-1.5v-6.22c0-.83.67-1.5,1.5-1.5s1.5.67,1.5,1.5v6.22c0,.83-.67,1.5-1.5,1.5Z"/>
    <path class="cls-3" d="M28.84,40.72h-9.69c-.83,0-1.5-.67-1.5-1.5s.67-1.5,1.5-1.5h9.69c.83,0,1.5.67,1.5,1.5s-.67,1.5-1.5,1.5Z"/>
  </g>
  <g>
    <g>
      <path class="cls-1" d="M38.22,31.18c-.17,0-.34-.07-.45-.21-.21-.25-.17-.62.08-.83,1.84-1.52,2.9-3.75,2.9-6.14s-1.06-4.62-2.9-6.14c-.25-.21-.29-.58-.08-.83.21-.25.58-.29.83-.08,2.11,1.74,3.33,4.31,3.33,7.04s-1.21,5.3-3.33,7.04c-.11.09-.24.13-.37.13Z"/>
      <path class="cls-1" d="M36.32,29.4c-.18,0-.36-.08-.47-.24-.19-.26-.13-.63.13-.82,1.38-1.01,2.2-2.63,2.2-4.33s-.82-3.33-2.2-4.34c-.26-.19-.32-.56-.13-.82.19-.26.56-.32.82-.13,1.68,1.23,2.68,3.21,2.68,5.28s-1,4.05-2.68,5.28c-.1.08-.23.11-.35.11Z"/>
    </g>
    <g>
      <path class="cls-1" d="M9.78,31.18c.17,0,.34-.07.45-.21.21-.25.17-.62-.08-.83-1.84-1.52-2.9-3.75-2.9-6.14s1.06-4.62,2.9-6.14c.25-.21.29-.58.08-.83-.21-.25-.58-.29-.83-.08-2.11,1.74-3.33,4.31-3.33,7.04s1.21,5.3,3.33,7.04c.11.09.24.13.37.13Z"/>
      <path class="cls-1" d="M11.68,29.4c.18,0,.36-.08.47-.24.19-.26.13-.63-.13-.82-1.38-1.01-2.2-2.63-2.2-4.33s.82-3.33,2.2-4.34c.26-.19.32-.56.13-.82-.19-.26-.56-.32-.82-.13-1.68,1.23-2.68,3.21-2.68,5.28s1,4.05,2.68,5.28c.1.08.23.11.35.11Z"/>
    </g>
  </g>
</svg>