<?xml version="1.0" encoding="UTF-8"?>
<svg id="icon" xmlns="http://www.w3.org/2000/svg" viewBox="0 0 48 48">
  <defs>
    <style>
      .cls-1 {
        fill: #848484;
      }

      .cls-2 {
        fill: #fff;
      }

      .cls-3 {
        fill: #114aa5;
      }
    </style>
  </defs>
  <circle class="cls-2" cx="24" cy="24" r="24"/>
  <g>
    <path class="cls-3" d="M26.81,36.32l-1.74-2.17-.8.79v1.38h-.75v-6.67h.75v4.41l2.54-2.57h.95l-2.14,2.19,2.15,2.64h-.96Z"/>
    <path class="cls-3" d="M33.89,36.32v-3.28c0-.61-.27-1-.89-1-.5,0-1.03.36-1.28.74v3.54h-.75v-3.28c0-.61-.26-1-.89-1-.49,0-1.01.36-1.27.75v3.53h-.75v-4.83h.75v.7c.2-.31.85-.82,1.56-.82s1.16.4,1.3.9c.27-.44.92-.9,1.62-.9.88,0,1.35.49,1.35,1.46v3.49h-.75Z"/>
    <path class="cls-3" d="M34.79,36.52l2.37-7.07h.59l-2.37,7.07h-.59Z"/>
    <path class="cls-3" d="M41.17,36.32v-3.18c0-.85-.44-1.1-1.09-1.1-.58,0-1.14.36-1.43.75v3.53h-.75v-6.67h.75v2.54c.34-.4,1-.82,1.73-.82,1.01,0,1.54.49,1.54,1.54v3.41h-.75Z"/>
  </g>
  <path class="cls-1" d="M39.79,9.8h-14.14c-1.33,0-2.41,1.08-2.41,2.41v8.2c0,1.33,1.08,2.41,2.41,2.41h.72v-1.17h-.72c-.68,0-1.24-.56-1.24-1.24v-8.2c0-.68.56-1.24,1.24-1.24h14.14c.68,0,1.24.56,1.24,1.24v8.2c0,.68-.56,1.24-1.24,1.24h-13.42v1.17h13.42c1.33,0,2.41-1.08,2.41-2.41v-8.2c0-1.33-1.08-2.41-2.41-2.41Z"/>
  <path class="cls-1" d="M24.05,18.14l-.83-.56c2.14-3.16,5.69-5.05,9.5-5.05s7.21,1.81,9.35,4.84l-.82.58c-1.96-2.77-5.15-4.42-8.54-4.42s-6.72,1.72-8.67,4.61Z"/>
  <rect class="cls-1" x="32.22" y="13.03" width="1" height="2.53"/>
  <rect class="cls-1" x="28.91" y="13.61" width="1" height="2.53" transform="translate(-3.31 10.95) rotate(-20)"/>
  <rect class="cls-1" x="25.99" y="15.3" width="1" height="2.53" transform="translate(-4.45 20.9) rotate(-39.99)"/>
  <rect class="cls-1" x="34.77" y="14.38" width="2.53" height="1" transform="translate(9.73 43.65) rotate(-70.01)"/>
  <rect class="cls-1" x="37.68" y="16.06" width="2.53" height="1" transform="translate(1.23 35.75) rotate(-49.99)"/>
  <polygon class="cls-1" points="32.72 16.24 33.22 22.33 32.22 22.33 32.72 16.24 32.72 16.24"/>
  <g>
    <circle class="cls-2" cx="32.72" cy="22.08" r="1.44"/>
    <path class="cls-1" d="M32.72,24.02c-1.07,0-1.94-.87-1.94-1.94s.87-1.94,1.94-1.94,1.94.87,1.94,1.94-.87,1.94-1.94,1.94ZM32.72,21.14c-.52,0-.94.42-.94.94s.42.94.94.94.94-.42.94-.94-.42-.94-.94-.94Z"/>
  </g>
</svg>