<?xml version="1.0" encoding="UTF-8"?>
<svg xmlns="http://www.w3.org/2000/svg" viewBox="0 0 48 48">
  <defs>
    <style>
      .cls-1 {
        fill: #848484;
      }

      .cls-1, .cls-2 {
        stroke-width: 0px;
      }

      .cls-2 {
        fill: #fff;
      }
    </style>
  </defs>
  <g id="background">
    <g>
      <circle class="cls-2" cx="24" cy="24" r="23"/>
      <path class="cls-1" d="m24,2c12.13,0,22,9.87,22,22s-9.87,22-22,22S2,36.13,2,24,11.87,2,24,2m0-2C10.75,0,0,10.75,0,24s10.75,24,24,24,24-10.75,24-24S37.25,0,24,0h0Z"/>
    </g>
  </g>
  <g id="icon">
    <path class="cls-1" d="m24,16c-.55,0-1-.45-1-1V7c0-.55.45-1,1-1s1,.45,1,1v8c0,.55-.45,1-1,1Z"/>
    <path class="cls-1" d="m21.31,30.79s-.06,0-.1,0c-.37-.03-.71-.22-.93-.52l-4.09-5.6c-.33-.45-.23-1.07.22-1.4.45-.33,1.07-.23,1.4.22l3.59,4.92,8.9-8.9c.39-.39,1.02-.39,1.41,0s.39,1.02,0,1.41l-9.49,9.49c-.24.24-.56.37-.9.37Z"/>
    <path class="cls-1" d="m24,41c-9.37,0-17-7.63-17-17,0-7.36,4.7-13.85,11.69-16.15.52-.17,1.09.11,1.26.64.17.52-.11,1.09-.64,1.26-6.17,2.03-10.31,7.75-10.31,14.25,0,8.27,6.73,15,15,15s15-6.73,15-15c0-6.5-4.14-12.22-10.31-14.25-.52-.17-.81-.74-.64-1.26s.74-.81,1.26-.64c6.99,2.3,11.69,8.79,11.69,16.15,0,9.37-7.63,17-17,17Z"/>
  </g>
</svg>