<?xml version="1.0" encoding="UTF-8"?>
<svg xmlns="http://www.w3.org/2000/svg" viewBox="0 0 48 48">
  <defs>
    <style>
      .cls-1 {
        fill: #848484;
      }

      .cls-1, .cls-2 {
        stroke-width: 0px;
      }

      .cls-2 {
        fill: #fff;
      }
    </style>
  </defs>
  <g id="background">
    <g>
      <circle class="cls-2" cx="24" cy="24" r="23"/>
      <path class="cls-1" d="m24,2c12.13,0,22,9.87,22,22s-9.87,22-22,22S2,36.13,2,24,11.87,2,24,2m0-2C10.75,0,0,10.75,0,24s10.75,24,24,24,24-10.75,24-24S37.25,0,24,0h0Z"/>
    </g>
  </g>
  <g id="icon">
    <path class="cls-1" d="m22.28,6.79h0,0m3.62.21l.25,2.14.16,1.34,1.3.35c1.17.32,2.27.78,3.28,1.38l1.18.7,1.08-.85,1.65-1.31,2.56,2.57-1.34,1.7-.83,1.05.66,1.17c.56,1,.99,2.05,1.27,3.12l.35,1.32,1.36.16,2.18.25v3.64l-2.22.25-1.35.15-.35,1.32c-.29,1.07-.73,2.13-1.32,3.15l-.68,1.17.84,1.07,1.45,1.84-2.57,2.57-1.87-1.48-1.06-.84-1.17.67c-1,.57-2.08,1.01-3.21,1.3l-1.32.35-.16,1.36-.27,2.39h-3.64l-.29-2.49-.16-1.33-1.29-.36c-1.05-.3-2.05-.72-2.98-1.26l-1.18-.69-1.07.84-1.94,1.53-2.57-2.57,1.55-1.95.85-1.07-.68-1.18c-.5-.86-.9-1.83-1.21-2.88l-.37-1.27-1.31-.15-2.44-.28v-3.64l2.3-.26,1.37-.16.34-1.34c.28-1.1.7-2.16,1.24-3.14l.64-1.16-.82-1.04-1.44-1.84,2.57-2.57,1.72,1.36,1.08.85,1.18-.7c1.05-.63,2.19-1.11,3.37-1.43l1.31-.36.15-1.35.24-2.13h3.64m-12.55,3.6h0,0m12.79-5.6h-4.11c-.88,0-1.62.66-1.73,1.54l-.27,2.36c-1.36.37-2.66.92-3.87,1.64l-1.9-1.5c-.32-.25-.7-.38-1.08-.38-.45,0-.89.17-1.23.51l-2.9,2.9c-.62.63-.68,1.62-.13,2.31l1.58,2.01c-.63,1.14-1.11,2.36-1.43,3.62l-2.53.29c-.88.1-1.54.85-1.54,1.73v4.1c0,.88.66,1.63,1.54,1.73l2.67.31c.34,1.15.8,2.27,1.4,3.31l-1.69,2.13c-.55.69-.49,1.68.13,2.31l2.9,2.9c.34.34.78.51,1.23.51.38,0,.76-.13,1.08-.38l2.12-1.67c1.08.63,2.24,1.12,3.44,1.46l.32,2.72c.1.88.84,1.54,1.72,1.54h4.11c.88,0,1.62-.66,1.73-1.54l.3-2.62c1.29-.34,2.53-.84,3.69-1.5l2.05,1.62c.32.25.7.38,1.08.38.45,0,.89-.17,1.23-.51l2.9-2.9c.62-.63.68-1.62.13-2.31l-1.59-2.02c.66-1.14,1.18-2.36,1.52-3.63l2.45-.28c.88-.11,1.54-.85,1.54-1.73v-4.11c0-.88-.66-1.62-1.54-1.72l-2.41-.28c-.33-1.26-.83-2.47-1.46-3.59l1.48-1.88c.55-.7.49-1.69-.13-2.31l-2.89-2.9c-.34-.34-.79-.51-1.23-.51-.38,0-.76.12-1.08.38l-1.83,1.45c-1.18-.7-2.45-1.23-3.77-1.59l-.28-2.36c-.1-.88-.84-1.54-1.72-1.54h0Z"/>
    <path class="cls-1" d="m21.31,30.79s-.06,0-.1,0c-.37-.03-.71-.22-.93-.52l-4.09-5.6c-.33-.45-.23-1.07.22-1.4.45-.33,1.07-.23,1.4.22l3.59,4.92,8.9-8.9c.39-.39,1.02-.39,1.41,0s.39,1.02,0,1.41l-9.49,9.49c-.24.24-.56.37-.9.37Z"/>
  </g>
</svg>