<?xml version="1.0" encoding="UTF-8"?>
<svg xmlns="http://www.w3.org/2000/svg" viewBox="0 0 48 48">
  <defs>
    <style>
      .cls-1 {
        fill: #df0031;
      }

      .cls-1, .cls-2 {
        stroke-width: 0px;
      }

      .cls-2 {
        fill: #fff;
      }
    </style>
  </defs>
  <g id="background">
    <circle class="cls-1" cx="24" cy="24" r="24"/>
  </g>
  <g id="icon">
    <path class="cls-2" d="m13.94,39.68l-5.97-4.45c-.44-.33-.53-.96-.2-1.4.33-.44.96-.54,1.4-.2l4.77,3.55,5.37-4,5.37,4,5.38-4,5.97,4.44c.44.33.54.96.21,1.4-.33.44-.96.54-1.4.21l-4.78-3.56-5.38,4-5.37-4-5.37,4Z"/>
    <g>
      <g>
        <g>
          <circle class="cls-2" cx="16.97" cy="13.9" r="1.5"/>
          <circle class="cls-2" cx="33.89" cy="20.06" r="1.5"/>
        </g>
        <path class="cls-2" d="m14.22,9.4c.43,0,.85.08,1.26.22l22.3,8.12c1.91.7,2.9,2.82,2.21,4.73-.53,1.46-1.93,2.44-3.47,2.44-.43,0-.85-.08-1.26-.22l-9.28-3.38-2.1-.77-1.63-.59-9.28-3.38c-.93-.34-1.67-1.02-2.08-1.91-.42-.9-.46-1.9-.12-2.83.53-1.45,1.92-2.43,3.47-2.43m9.13,13.32v.05s-.93,4.3-.93,4.3c-.09.42-.1.85-.04,1.26l-1.89-.69c.31-.28.57-.61.78-.99l2.06-3.88.02-.04M14.22,7.4c-2.33,0-4.51,1.44-5.35,3.75-1.08,2.96.45,6.23,3.4,7.3l9.28,3.38-2.06,3.88c-.28.53-.82.84-1.39.84-.18,0-.36-.03-.54-.1l-1.71-.62c-.12-.04-.24-.06-.36-.06-.43,0-.84.27-1,.7-.2.55.08,1.16.63,1.36l11.22,4.09c.12.04.24.06.36.06.43,0,.84-.27,1-.7.2-.55-.08-1.16-.63-1.36l-1.71-.62c-.74-.27-1.16-1.04-1-1.81l.92-4.3,9.28,3.38c.64.23,1.3.34,1.94.34,2.33,0,4.51-1.44,5.35-3.75,1.08-2.96-.45-6.22-3.4-7.3L16.16,7.74c-.64-.23-1.3-.34-1.95-.34h0Z"/>
      </g>
      <path class="cls-2" d="m22.84,21.52s-.85,1.38-.97,1.69-1.05,2.07-1.34,2.55-1.67,1.38-1.67,1.38c0,0,.03.71.63.93l3.22,1.17.68-1.86,1.2-5.23-1.75-.64Z"/>
    </g>
  </g>
</svg>