<?xml version="1.0" encoding="UTF-8"?>
<svg id="icon" xmlns="http://www.w3.org/2000/svg" viewBox="0 0 48 48">
  <defs>
    <style>
      .cls-1 {
        fill: #848484;
      }

      .cls-2 {
        fill: #fff;
      }
    </style>
  </defs>
  <circle class="cls-2" cx="24" cy="24" r="24"/>
  <g>
    <g>
      <path class="cls-1" d="M28.83,38.6H10.78c-1.6,0-2.9-1.3-2.9-2.9v-15.01c0-1.6,1.3-2.9,2.9-2.9h17.57c1.87,0,3.39,1.52,3.39,3.39v14.52c0,1.6-1.3,2.9-2.9,2.9ZM10.78,20.05c-.35,0-.64.29-.64.64v15.01c0,.35.29.64.64.64h18.06c.35,0,.64-.29.64-.64v-14.52c0-.62-.51-1.13-1.13-1.13H10.78Z"/>
      <polygon class="cls-1" points="22.66 34.83 16.66 28.45 9.72 34.12 8.29 32.37 16.86 25.37 22.79 31.66 29.91 25.2 31.43 26.88 22.66 34.83"/>
      <path class="cls-1" d="M23.51,23.51c-.94,0-1.7.76-1.7,1.7s.76,1.7,1.7,1.7,1.7-.76,1.7-1.7-.76-1.7-1.7-1.7h0Z"/>
    </g>
    <g>
      <path class="cls-1" d="M32.54,13.59H14.97c-1.6,0-2.9,1.3-2.9,2.9v2.32h2.26v-2.32c0-.35.29-.64.64-.64h17.57c.62,0,1.13.51,1.13,1.13v14.52c0,.35-.29.64-.64.64h-1.73v2.26h1.73c1.6,0,2.9-1.3,2.9-2.9v-14.52c0-1.87-1.52-3.39-3.39-3.39Z"/>
      <polygon class="cls-1" points="30.15 27.65 35.63 22.68 34.11 21.01 30.15 24.59 30.15 27.65"/>
    </g>
    <g>
      <path class="cls-1" d="M36.73,9.4h-17.57c-1.6,0-2.9,1.3-2.9,2.9v2.32h2.26v-2.32c0-.35.29-.64.64-.64h17.57c.62,0,1.13.51,1.13,1.13v14.52c0,.35-.29.64-.64.64h-1.73v2.26h1.73c1.6,0,2.9-1.3,2.9-2.9v-14.52c0-1.87-1.52-3.39-3.39-3.39Z"/>
      <polygon class="cls-1" points="34.35 23.45 39.82 18.49 38.3 16.81 34.35 20.4 34.35 23.45"/>
    </g>
  </g>
</svg>