<?xml version="1.0" encoding="UTF-8"?>
<svg id="icon" xmlns="http://www.w3.org/2000/svg" viewBox="0 0 48 48">
  <defs>
    <style>
      .cls-1 {
        fill: #848484;
      }

      .cls-2 {
        fill: #fff;
      }
    </style>
  </defs>
  <g>
    <path class="cls-2" d="M24,47c-12.68,0-23-10.32-23-23S11.32,1,24,1s23,10.32,23,23-10.32,23-23,23Z"/>
    <path class="cls-1" d="M24,0C10.75,0,0,10.75,0,24s10.75,24,24,24,24-10.75,24-24S37.25,0,24,0ZM24,46c-12.13,0-22-9.87-22-22S11.87,2,24,2s22,9.87,22,22-9.87,22-22,22Z"/>
  </g>
  <g>
    <path class="cls-1" d="M23.8,43h-.01c-1.07-.01-2.14-.11-3.18-.3-.54-.1-.91-.62-.81-1.16.1-.54.62-.91,1.16-.81.93.17,1.89.26,2.85.27.55,0,.99.46.99,1.01,0,.55-.45.99-1,.99ZM27.81,42.6c-.46,0-.88-.32-.98-.79-.12-.54.23-1.07.77-1.19.93-.2,1.85-.48,2.73-.84.51-.2,1.09.04,1.3.55.21.51-.04,1.09-.55,1.3-.98.4-2.01.71-3.05.94-.07.02-.14.02-.21.02ZM16.94,41.56c-.13,0-.26-.03-.39-.08-.98-.42-1.92-.92-2.82-1.5-.46-.3-.6-.92-.3-1.38.3-.46.92-.6,1.38-.3.8.52,1.65.97,2.52,1.34.51.22.74.8.53,1.31-.16.38-.53.61-.92.61ZM34.25,39.8c-.32,0-.63-.15-.82-.43-.32-.45-.2-1.08.25-1.39.78-.54,1.52-1.15,2.2-1.82.4-.39,1.03-.38,1.41.02.39.4.38,1.03-.02,1.41-.76.75-1.59,1.43-2.46,2.03-.17.12-.37.18-.57.18ZM11.14,37.59c-.26,0-.52-.1-.71-.3-.75-.76-1.43-1.59-2.03-2.46-.32-.45-.2-1.08.25-1.39.46-.32,1.08-.2,1.39.25.54.78,1.15,1.52,1.82,2.2.39.4.38,1.03-.02,1.41-.2.19-.45.29-.7.29Z"/>
    <path class="cls-1" d="M4.45,30c-.33-1.33.48-2.68,1.81-3s2.68.48,3,1.81-.48,2.68-1.81,3-2.68-.48-3-1.81Z"/>
    <path class="cls-1" d="M43.1,34.86l-1.36-7.86-6.13,5.1,2.74,1.01s-.03.06-.05.08c-.3.46-.16,1.08.3,1.38.17.11.35.16.54.16.33,0,.65-.16.84-.46.1-.15.18-.31.27-.46l2.85,1.05Z"/>
  </g>
  <g>
    <path class="cls-1" d="M24,12c4.67,0,8.47,3.8,8.47,8.47,0,1.48-.81,3.57-2.41,6.22-1.48,2.44-3.3,4.85-4.91,6.99-.41.54-.8,1.05-1.15,1.53-.36-.48-.75-1-1.17-1.56-1.61-2.14-3.44-4.56-4.89-6.96-1.6-2.65-2.41-4.74-2.41-6.22,0-4.67,3.8-8.47,8.47-8.47M24,10c-5.78,0-10.47,4.7-10.47,10.47,0,1.88.89,4.25,2.7,7.26,1.51,2.49,3.38,4.97,5.03,7.15.76,1.01,1.48,1.96,2.03,2.75.16.24.43.37.72.37s.55-.14.72-.37c.55-.79,1.27-1.74,2.03-2.75,1.65-2.18,3.51-4.66,5.03-7.15,1.82-3,2.7-5.38,2.7-7.26,0-5.77-4.7-10.47-10.47-10.47h0Z"/>
    <path class="cls-1" d="M24,16.68c1.74,0,3.16,1.42,3.16,3.16s-1.42,3.16-3.16,3.16-3.16-1.42-3.16-3.16,1.42-3.16,3.16-3.16M24,14.68c-2.85,0-5.16,2.31-5.16,5.16s2.31,5.16,5.16,5.16,5.16-2.31,5.16-5.16-2.31-5.16-5.16-5.16h0Z"/>
  </g>
</svg>