<?xml version="1.0" encoding="UTF-8"?>
<svg id="icon" xmlns="http://www.w3.org/2000/svg" viewBox="0 0 48 48">
  <defs>
    <style>
      .cls-1 {
        fill: #fff;
      }

      .cls-2 {
        fill: #df0031;
      }
    </style>
  </defs>
  <circle class="cls-2" cx="24" cy="24" r="24"/>
  <path class="cls-1" d="M34.17,12.11l3.36,8.49.5,1.26h.97v9.3h-3.1v4.72h-3.7v-4.72H15.8v4.72h-3.7v-4.72h-3.1v-9.3h.97l.5-1.26,3.37-8.49h20.34M34.53,10.11H13.47c-.61,0-1.16.4-1.39,1l-3.47,8.75h-.09c-.83,0-1.52.74-1.52,1.66v9.99c0,.91.68,1.65,1.52,1.65h1.58v3.06c0,.91.68,1.66,1.52,1.66h4.65c.84,0,1.53-.74,1.53-1.66v-3.06h12.41v3.06c0,.91.68,1.66,1.52,1.66h4.66c.84,0,1.52-.74,1.52-1.66v-3.06h1.58c.83,0,1.52-.74,1.52-1.65v-9.99c0-.91-.68-1.66-1.53-1.66h-.08l-3.47-8.75c-.24-.61-.79-1-1.4-1h0Z"/>
  <rect class="cls-2" x="19.5" y="8" width="9" height="9"/>
  <path class="cls-1" d="M22.79,19.26l-1.12-9.27c-.31-1.57.51-2.49,1.92-2.49h.72c1.49,0,2.35.92,2,2.49l-1.12,9.27c-.17.86-.43,1.29-1.03,1.29h-.4c-.55,0-.77-.43-.97-1.29ZM21.85,24.61v-.4c0-1.23.63-1.89,1.89-1.89h.49c1.29,0,1.89.66,1.89,1.89v.4c0,1.23-.6,1.89-1.89,1.89h-.49c-1.26,0-1.89-.66-1.89-1.89Z"/>
</svg>