<?xml version="1.0" encoding="UTF-8"?>
<svg id="icon" xmlns="http://www.w3.org/2000/svg" viewBox="0 0 48 48">
  <defs>
    <style>
      .cls-1 {
        fill: #848484;
      }

      .cls-2 {
        fill: #fff;
      }
    </style>
  </defs>
  <circle class="cls-2" cx="24" cy="24" r="24"/>
  <path class="cls-1" d="M36.67,38.6H11.33c-2.25,0-4.07-1.83-4.07-4.07V13.47c0-2.25,1.83-4.07,4.07-4.07h24.64c2.63,0,4.76,2.14,4.76,4.76v20.37c0,2.25-1.83,4.07-4.07,4.07ZM11.33,12.57c-.49,0-.9.4-.9.9v21.06c0,.49.4.9.9.9h25.33c.5,0,.9-.4.9-.9V14.16c0-.88-.71-1.59-1.59-1.59H11.33Z"/>
  <path class="cls-1" d="M30.53,22.98l-9.82-5.93c-.8-.48-1.81.09-1.81,1.02v11.87c0,.93,1.02,1.5,1.81,1.02l9.82-5.93c.77-.47.77-1.58,0-2.05Z"/>
</svg>