<?xml version="1.0" encoding="UTF-8"?>
<svg id="icon" xmlns="http://www.w3.org/2000/svg" viewBox="0 0 48 48">
  <defs>
    <style>
      .cls-1 {
        fill: #e8e3e3;
      }

      .cls-2 {
        fill: #fff;
      }

      .cls-3 {
        fill: #00b6c4;
      }

      .cls-4 {
        fill: #114aa5;
      }
    </style>
  </defs>
  <circle class="cls-2" cx="24" cy="24" r="24"/>
  <g>
    <path class="cls-4" d="M12.13,23.78c-1.49,0-2.69-1.21-2.69-2.7s1.21-2.69,2.69-2.69h23.74c1.49,0,2.69,1.21,2.69,2.69s-1.21,2.7-2.69,2.7H12.13Z"/>
    <g>
      <g>
        <circle class="cls-2" cx="15" cy="20.9" r="1.5"/>
        <circle class="cls-2" cx="33" cy="20.9" r="1.5"/>
      </g>
      <path class="cls-4" d="M35.87,15.39H12.13c-3.14,0-5.69,2.55-5.69,5.69s2.55,5.7,5.69,5.7h9.88l-.6,4.35c-.11.78-.77,1.36-1.56,1.36h-1.82c-.59,0-1.06.47-1.06,1.06s.47,1.06,1.06,1.06h11.95c.59,0,1.06-.47,1.06-1.06s-.47-1.06-1.06-1.06h-1.82c-.78,0-1.45-.58-1.56-1.36l-.6-4.35h9.88c3.14,0,5.69-2.55,5.69-5.7s-2.55-5.69-5.69-5.69ZM35.87,24.78H12.13c-2.04,0-3.69-1.66-3.69-3.7s1.66-3.69,3.69-3.69h23.74c2.04,0,3.69,1.66,3.69,3.69s-1.66,3.7-3.69,3.7Z"/>
    </g>
  </g>
  <rect class="cls-3" x="0" y="22.5" width="48" height="3" transform="translate(-9.94 24) rotate(-45)"/>
</svg>