<?xml version="1.0" encoding="UTF-8"?>
<svg id="icon" xmlns="http://www.w3.org/2000/svg" viewBox="0 0 48 48">
  <defs>
    <style>
      .cls-1 {
        fill: #848484;
      }

      .cls-2 {
        fill: #fff;
      }

      .cls-3 {
        fill: #00b6c4;
      }

      .cls-4 {
        fill: #114aa5;
      }
    </style>
  </defs>
  <g>
    <g>
      <circle class="cls-2" cx="24" cy="24" r="24"/>
      <path class="cls-4" d="M35.87,15.39H8.59c-.64,0-1.16.52-1.16,1.16v9.09c0,.64.52,1.16,1.16,1.16h13.41l-.6,4.35c-.11.77-.77,1.35-1.56,1.35h-1.82c-.59,0-1.06.48-1.06,1.06s.47,1.06,1.06,1.06h11.94c.59,0,1.06-.47,1.06-1.06s-.47-1.06-1.06-1.06h-1.82c-.78,0-1.45-.58-1.56-1.35l-.6-4.35h13.41c.64,0,1.16-.52,1.16-1.16v-9.09c0-.64-.52-1.16-1.16-1.16h-3.53Z"/>
      <rect class="cls-2" x="15.26" y="18.42" width="1.43" height="5.32" rx=".71" ry=".71"/>
      <rect class="cls-4" x="39.24" y="19.45" width="2.63" height="3.29" rx=".91" ry=".91"/>
      <path class="cls-4" d="M44.96,31.46c-.12,0-.25-.05-.35-.14-1.79-1.72-1.82-2.64-1.85-3.62,0-.14,0-.28-.02-.42-.06-.78.06-1.46.16-2.06.14-.85.25-1.53-.1-2.26-.31-.63-.89-1.14-1.73-1.52-.25-.11-.36-.41-.25-.66.11-.25.41-.36.66-.25,1.06.48,1.8,1.15,2.22,1.99.5,1.02.34,1.96.19,2.86-.09.57-.19,1.17-.14,1.82.01.16.02.32.02.47.03.83.05,1.49,1.55,2.93.2.19.21.51.01.71-.1.1-.23.15-.36.15Z"/>
    </g>
    <g>
      <path class="cls-1" d="M23.15,9.7c0,.17-.07.34-.21.45-.25.21-.62.17-.83-.08-1.52-1.84-3.75-2.9-6.14-2.9s-4.62,1.06-6.14,2.9c-.21.25-.58.29-.83.08-.25-.21-.29-.58-.08-.83,1.74-2.11,4.31-3.33,7.04-3.33s5.3,1.21,7.04,3.33c.09.11.13.24.13.37Z"/>
      <path class="cls-1" d="M21.37,11.6c0,.18-.08.36-.24.47-.26.19-.63.13-.82-.13-1.01-1.38-2.63-2.2-4.33-2.2s-3.33.82-4.34,2.2c-.19.26-.56.32-.82.13-.26-.19-.32-.56-.13-.82,1.23-1.68,3.21-2.68,5.28-2.68s4.05,1,5.28,2.68c.08.1.11.23.11.35Z"/>
      <path class="cls-1" d="M19.56,13.54c0,.21-.11.41-.31.52-.29.15-.64.04-.79-.24-.49-.92-1.44-1.49-2.47-1.49s-1.99.57-2.47,1.49c-.15.29-.51.4-.79.25-.29-.15-.4-.5-.25-.79.69-1.31,2.04-2.12,3.51-2.12s2.82.81,3.51,2.11c.05.09.07.18.07.27Z"/>
    </g>
  </g>
  <g>
    <line class="cls-1" x1="7.03" y1="40.97" x2="40.97" y2="7.03"/>
    <rect class="cls-3" x="0" y="22.5" width="48" height="3" transform="translate(-9.94 24) rotate(-45)"/>
  </g>
</svg>