<?xml version="1.0" encoding="UTF-8"?>
<svg id="icon" xmlns="http://www.w3.org/2000/svg" viewBox="0 0 48 48">
  <defs>
    <style>
      .cls-1 {
        fill: #848484;
      }

      .cls-2 {
        fill: #fff;
      }
    </style>
  </defs>
  <g>
    <path class="cls-2" d="M24,47.07c-12.68,0-23-10.32-23-23S11.32,1.07,24,1.07s23,10.32,23,23-10.32,23-23,23Z"/>
    <path class="cls-1" d="M24,2.07c12.13,0,22,9.87,22,22s-9.87,22-22,22S2,36.2,2,24.07,11.87,2.07,24,2.07M24,.07C10.75.07,0,10.82,0,24.07s10.75,24,24,24,24-10.75,24-24S37.25.07,24,.07h0Z"/>
  </g>
  <g>
    <g>
      <path class="cls-1" d="M38.03,21.29c-.36,0-.72-.16-.97-.46-3.23-3.92-7.99-6.17-13.06-6.17s-9.83,2.25-13.06,6.17c-.44.53-1.22.61-1.76.17-.53-.44-.61-1.23-.17-1.76,3.7-4.5,9.17-7.08,14.99-7.08s11.29,2.58,14.99,7.08c.44.53.36,1.32-.17,1.76-.23.19-.51.29-.79.29Z"/>
      <path class="cls-1" d="M13.76,25.34c-.26,0-.52-.08-.74-.24-.56-.41-.68-1.19-.27-1.75,2.62-3.57,6.82-5.7,11.24-5.7s8.63,2.13,11.24,5.7c.41.56.29,1.34-.27,1.75-.56.41-1.34.29-1.75-.27-2.15-2.93-5.6-4.68-9.23-4.68s-7.08,1.75-9.23,4.68c-.25.33-.62.51-1.01.51Z"/>
      <path class="cls-1" d="M17.63,29.47c-.2,0-.4-.05-.58-.14-.61-.32-.84-1.08-.52-1.69,1.47-2.78,4.33-4.5,7.48-4.5s6,1.72,7.47,4.5c.32.61.09,1.37-.52,1.69-.61.32-1.37.09-1.69-.52-1.04-1.96-3.05-3.17-5.27-3.17s-4.23,1.22-5.26,3.17c-.22.42-.66.67-1.11.67Z"/>
    </g>
    <path class="cls-1" d="M26.47,32.26s0,.09,0,.13c-.06,1.21-.99,2.19-2.17,2.32-.09.01-.19.02-.29.02s-.2,0-.29-.02c-1.18-.14-2.11-1.12-2.17-2.32,0-.04,0-.08,0-.13,0-1.36,1.11-2.47,2.47-2.47s2.47,1.11,2.47,2.47Z"/>
  </g>
</svg>